<?xml version="1.0" encoding="UTF-8"?>
<svg id="Layer_1" data-name="Layer 1" xmlns="http://www.w3.org/2000/svg" xmlns:xlink="http://www.w3.org/1999/xlink" viewBox="0 0 1348.76 703">
  <defs>
    <style>
      .cls-1 {
        fill: #23a859;
      }

      .cls-2 {
        fill: #ea4133;
      }

      .cls-3, .cls-4 {
        fill: #fff;
      }

      .cls-5 {
        fill: #ccd1d9;
      }

      .cls-6 {
        fill: #367c2d;
      }

      .cls-7 {
        fill: #a9b1bc;
      }

      .cls-8 {
        fill: #fecd57;
      }

      .cls-9 {
        fill: #5e9cea;
      }

      .cls-10 {
        fill: #c28fef;
      }

      .cls-11 {
        fill: #4b4b4b;
      }

      .cls-12 {
        fill: #c6e7ff;
      }

      .cls-13 {
        fill: #f19f40;
      }

      .cls-14 {
        fill: #3e4550;
      }

      .cls-15 {
        fill: #2f2f2f;
      }

      .cls-16 {
        fill: #5d9cec;
      }

      .cls-17 {
        fill: #9c2d1b;
      }

      .cls-18 {
        fill: #4c66af;
      }

      .cls-19 {
        clip-path: url(#clippath-1);
      }

      .cls-20 {
        fill: #e6e9ed;
      }

      .cls-21 {
        fill: #dce852;
      }

      .cls-22 {
        fill: #4da852;
      }

      .cls-23 {
        fill: #ed4c5c;
      }

      .cls-4 {
        isolation: isolate;
        opacity: .56;
      }

      .cls-24 {
        fill: #4f7b9a;
      }

      .cls-25 {
        fill: #dd5b59;
      }

      .cls-26 {
        fill: #9c3;
      }

      .cls-27 {
        fill: #ffdd7d;
      }

      .cls-28 {
        fill: #42ade2;
      }

      .cls-29 {
        fill: #a05c3c;
      }

      .cls-30 {
        fill: #89af50;
      }

      .cls-31 {
        clip-path: url(#clippath);
      }

      .cls-32 {
        fill: #4a89dc;
      }

      .cls-33 {
        fill: none;
      }

      .cls-34 {
        fill: #cbd0d8;
      }

      .cls-35 {
        fill: #ec5564;
      }

      .cls-36 {
        fill: url(#Gradient_bez_nazwy_3);
      }

      .cls-37 {
        fill: url(#Gradient_bez_nazwy_2);
      }

      .cls-38 {
        fill: #e5e8ec;
      }

      .cls-39 {
        fill: #493816;
      }

      .cls-40 {
        fill: #434a54;
      }

      .cls-41 {
        fill: #d2423f;
      }

      .cls-42 {
        fill: #ff8736;
      }

      .cls-43 {
        fill: #c67c5d;
      }

      .cls-44 {
        fill: #f7b600;
      }

      .cls-45 {
        fill: #484e27;
      }
    </style>
    <clipPath id="clippath">
      <rect class="cls-33" x="149.82" y="34.05" width="68.55" height="68.55"/>
    </clipPath>
    <radialGradient id="Gradient_bez_nazwy_3" data-name="Gradient bez nazwy 3" cx="18.39" cy="735.05" fx="18.39" fy="735.05" r=".5" gradientTransform="translate(-224.25 26642.72) scale(35.71 -35.71)" gradientUnits="userSpaceOnUse">
      <stop offset=".42" stop-color="#f3ae3d"/>
      <stop offset=".54" stop-color="#f2a53c"/>
      <stop offset=".73" stop-color="#f08c38"/>
      <stop offset=".98" stop-color="#ec6333"/>
      <stop offset="1" stop-color="#ec5f32"/>
    </radialGradient>
    <radialGradient id="Gradient_bez_nazwy_2" data-name="Gradient bez nazwy 2" cx="24.26" cy="729.36" fx="24.26" fy="729.36" r=".5" gradientTransform="translate(-34.44 14596.61) scale(19.47 -19.47)" gradientUnits="userSpaceOnUse">
      <stop offset=".04" stop-color="#fff"/>
      <stop offset=".15" stop-color="#fdf4df"/>
      <stop offset=".4" stop-color="#fadd9b"/>
      <stop offset=".6" stop-color="#f7cb6a"/>
      <stop offset=".76" stop-color="#f6c14b"/>
      <stop offset=".85" stop-color="#f5bd40"/>
    </radialGradient>
    <clipPath id="clippath-1">
      <rect class="cls-33" x="619.57" y="238.28" width="66.25" height="66.25"/>
    </clipPath>
  </defs>
  <g>
    <g>
      <path class="cls-1" d="M504.1,494.6l-32.34-11.41c-3.65-1.29-6.77-3.76-8.87-7.02l-11.28-17.55-63.02-25.21c-6.19-2.48-13.04-2.81-19.45-.95l-26.57,7.71c-7.09,2.06-14.33-2.74-15.2-10.08l-.55-4.68c-.57-4.83-4.93-8.3-9.76-7.76-3.31,.37-6.38-1.77-7.19-5l-1.23-4.93c-1.25-5.02-6.04-8.33-11.18-7.72l-6.89,.81c-6.82,.8-13.35-3.03-15.96-9.39l-2.24-5.44c-2.7-6.56-.47-14.12,5.37-18.16l5.22-3.61c3.65-2.53,8.23-3.32,12.52-2.17l24.37,6.56c6.42,1.73,13.21-.94,16.73-6.58l18.27-29.23,18.45-26.97c1.64-2.4,3.95-4.28,6.63-5.4l49.21-20.6c8.47-3.54,11.84-13.76,7.14-21.65l-27.79-46.69c-2.31-3.87-6.22-6.51-10.68-7.2l-37.47-5.76c-9.48-1.46-17.9,6.18-17.37,15.76l.85,15.38c.62,11.13-10.63,19.07-20.91,14.76l-23.33-9.78c-2.88-1.21-5.31-3.28-6.96-5.92l-6.19-9.91c-4.17-6.68-2.51-15.44,3.82-20.13l17.83-13.21c7.56-5.6,8.21-16.68,1.36-23.12l-5.68-5.35c-5.05-4.75-12.68-5.45-18.51-1.71l-9.13,5.87c-2.31,1.49-4.99,2.31-7.73,2.39l-49.42,1.41c-1.87,.05-3.74-.24-5.51-.87l-60.06-21.45c-3.24-1.16-6.78-1.17-10.04-.04l-27.58,9.59c-2.92,1.02-6.09,1.11-9.07,.27l-64.12-18.12c-3.55-1-7.34-.67-10.65,.93l-23.39,11.26c-8.04,3.87-10.99,13.83-6.35,21.45l9.29,15.26c2.86,4.69,2.94,10.57,.21,15.34-4.51,7.88-1.08,17.93,7.3,21.43l14.54,6.06c5.16,2.15,11.09,1.27,15.4-2.28l13.89-11.44c4.05-3.34,9.54-4.33,14.5-2.62l39.71,13.65c2.57,.88,4.85,2.44,6.6,4.51l38.89,45.84c2.31,2.73,3.59,6.19,3.59,9.77v30.84c0,3.59,1.28,7.06,3.6,9.79l70.59,82.87,61.08,19.89c5.35,1.74,9.94,5.28,12.98,10.02l4.43,6.9c3.39,5.27,9.05,8.65,15.29,9.13l.95,.07c5.27,.41,8.89,5.47,7.57,10.59l-7.98,30.94c-1.49,5.77,.07,11.89,4.12,16.25l30.91,33.2c3.85,4.13,5.46,9.87,4.32,15.4l-10.74,52.36c-.24,1.15-.36,2.33-.36,3.51v70.29c0,4.47,1.72,8.77,4.8,12.02h0c10.22,10.76,28.35,4.66,29.99-10.09l3.32-29.84c.39-3.54,1.86-6.88,4.21-9.56l50.69-57.93c1.43-1.63,3.14-2.98,5.06-3.98l28.32-14.77c3.78-1.97,6.71-5.27,8.23-9.26l17.08-44.84c3.49-9.16-1.25-19.4-10.5-22.66Z"/>
      <path class="cls-1" d="M175.73,140.18l19.99,9.16c1.75,.8,3.66,1.22,5.59,1.22h27.93c11.26,0,17.51-13.05,10.44-21.82l-1.11-1.38c-2.92-3.62-7.51-5.48-12.13-4.89l-14.43,1.83c-2.32,.29-4.68-.02-6.83-.92l-18.7-7.77c-5.39-2.24-11.61-.74-15.38,3.72-5.73,6.77-3.42,17.15,4.65,20.85Z"/>
      <path class="cls-1" d="M361.3,172.65c-3.09,4.85-.28,11.29,5.39,12.32l26.62,4.84c6.34,1.15,11.42-5.19,8.91-11.13l-10.97-25.93c-.61-1.43-1.61-2.66-2.9-3.54l-41.43-28.23c-1.4-.95-3.06-1.44-4.75-1.4l-71.18,1.63c-6.17,.14-9.92,6.85-6.81,12.18l6.41,10.98c2.06,3.53,6.43,4.97,10.19,3.36l23.84-10.22c2.19-.94,4.68-.87,6.81,.2l46.67,23.34c4.3,2.15,5.79,7.54,3.21,11.59h0Z"/>
      <path class="cls-1" d="M190.24,106.14l18.22,5.71h120.49c6.81,0,12.86-4.31,15.1-10.74l7.1-20.42c1.33-3.82,4.05-6.99,7.62-8.88l28.66-15.17c6.16-3.26,4.33-12.53-2.6-13.21l-36.18-3.57c-1.33-.13-2.67-.1-3.99,.11l-89.51,13.67c-1.92,.29-3.77,.93-5.46,1.89l-61.16,34.63c-6.67,3.78-5.62,13.7,1.7,15.99Z"/>
      <path class="cls-1" d="M592.84,55.42l-60.8-21.53c-1.98-.7-4.1-.9-6.17-.57l-97.49,15.23c-1.7,.27-3.34,.88-4.8,1.8l-46.3,29.24c-4.72,2.98-3.48,10.17,1.96,11.4l31.17,7.04c2.65,.6,5.04,2.04,6.81,4.1l23.43,27.33c1.87,2.18,2.94,4.92,3.03,7.79l1.28,37.19c.11,3.3,1.52,6.43,3.91,8.71l21.28,20.26c3.92,3.74,10.42,1.8,11.66-3.47l2.25-9.55c.89-3.77,3.45-6.92,6.95-8.55l60.54-28.25c4.03-1.88,6.77-5.74,7.22-10.16l5.11-49.79c.39-3.79,2.47-7.2,5.65-9.28l24.82-16.23c4.95-3.24,4.05-10.74-1.52-12.72Z"/>
      <path class="cls-1" d="M1317.39,211.85c2.33,0,4.58-.81,6.38-2.3l21.37-17.69c4.99-4.13,4.8-11.84-.39-15.72l-31.59-23.6c-1.73-1.29-3.83-1.99-5.98-1.99h-21.72c-3.12,0-6.07-1.46-7.96-3.94l-7.59-9.98c-1.84-2.42-4.67-3.87-7.71-3.94l-59.7-1.49-31.96,1.32c-4.56,.19-9.04-1.19-12.71-3.89l-7.04-5.19c-3.44-2.54-7.6-3.91-11.88-3.91h-53.39c-1.86,0-3.57-1.03-4.43-2.68l-1.18-2.26c-6.41-12.23-20.34-18.51-33.74-15.21l-50.67,12.47-22.86,17.49c-1.59,1.22-3.51,1.93-5.52,2.04l-22.03,1.24c-2.33,.13-4.63-.56-6.5-1.94l-6.43-4.75c-4.68-3.46-11.31-2.2-14.41,2.72l-11.4,18.14c-1.51,2.4-3.96,4.04-6.75,4.53l-68.06,11.89c-9.5,1.66-19.28,.54-28.16-3.24l-28.85-12.26c-11.3-4.8-23.97-5.28-35.6-1.34l-15.45,5.23c-8.5,2.88-16.08,8-21.92,14.82l-27.25,31.79c-2.62,3.05-3.15,7.38-1.35,10.98l1.77,3.53c1.69,3.39,5.16,5.53,8.94,5.53,4.37,0,6.94,4.9,4.46,8.49l-20.97,30.41c-2.07,3.01-4.93,5.39-8.26,6.88l-15.95,7.18c-4.97,2.24-7.24,8.05-5.09,13.06l.07,.16c2.57,5.99-1.19,12.8-7.63,13.82l-7.36,1.16c-4.86,.77-8.44,4.96-8.44,9.88v8.51c0,3.97,2.95,7.31,6.89,7.8l12.87,1.61c2.64,.33,5.28-.7,6.99-2.74l10.11-12.02c2.32-2.76,5.34-4.84,8.75-6.02l22.89-7.94c3.91-1.36,8.26-.16,10.93,3.01l9.68,11.49c2.26,2.68,6.57,.37,5.59-3l-2.86-9.8c-1.24-4.26,3.26-7.91,7.17-5.8l8.98,4.84,9.94,16.57c3.33,5.55,11.55,4.93,14.02-1.05l2.47-5.99c1.35-3.29,3.61-6.12,6.52-8.17l12.28-8.67c5.32-3.76,12.37-3.99,17.93-.59l21.23,12.98c3.34,2.04,1.04,7.17-2.71,6.03l-12.86-3.92c-5.66-1.73-11.77-1.21-17.07,1.43l-6.79,3.39c-6.61,3.29-9.29,11.33-5.99,17.93l.1,.21c1.72,3.43,5.56,5.13,9.2,4.1,2.86-.81,6.33-1.79,9.54-2.69,5.02-1.42,10,2.36,10,7.57v7.55c0,4.34-3.52,7.87-7.87,7.87h-44.82c-1.41,0-2.8-.38-4.01-1.1l-39.24-23.25c-1.59-.94-3.46-1.29-5.28-1l-62.08,10.14c-8.66,1.41-15.78,7.6-18.4,15.98l-18.75,60.1c-2.69,8.62-.13,18.01,6.55,24.07l24.28,22.03c5.18,4.7,12.39,6.43,19.13,4.59l17.91-4.89c4.37-1.19,9.02-.9,13.21,.83l7.22,2.99c6.09,2.52,10.59,7.82,12.1,14.24l9.05,38.6c.43,1.85,.61,3.75,.52,5.64l-1.24,25.97c-.16,3.32,.49,6.62,1.89,9.63l24.03,51.71c4.32,9.3,14.94,13.88,24.68,10.64l.27-.09c4.55-1.52,8.37-4.5,10.9-8.49,7.42-11.69,23.31-36.65,28.35-44.58,1.05-1.64,2.32-3.13,3.79-4.41l15.01-13.13c5.34-4.67,7.88-11.77,6.71-18.76l-4.38-26.25c-1.13-6.79,1.23-13.7,6.28-18.38l28.89-26.75c4.18-3.87,6.56-9.31,6.56-15.01v-5.23c0-5.34-5.21-9.13-10.3-7.48l-15.75,5.12c-3.6,1.17-7.52-.39-9.34-3.71l-4.15-7.6c-4.46-8.17,6.46-15.94,12.72-9.06l.68,.75c2.14,2.36,5.5,3.19,8.49,2.11l41.47-14.98c5.42-1.96,6.96-8.88,2.89-12.96l-1.85-1.85c-1.47-1.48-3.48-2.3-5.56-2.3h-11.53c-2.82,0-5.43-1.51-6.83-3.96l-3.11-5.45c-3.95-6.91,3.69-14.64,10.65-10.78l18.09,10.05c.55,.31,1.14,.55,1.75,.71l24.22,6.6c6.69,1.83,12.54,5.91,16.56,11.57l25.73,36.21c4.78,6.72,15.18,5.1,17.68-2.76l4.18-13.15c.67-2.1,2.01-3.92,3.82-5.18l19.04-13.25c8.6-5.99,20.37-4.31,26.97,3.83l15.72,19.42v23.54c0,2.5,.93,4.9,2.62,6.75l14.5,15.86c3.08,3.37,8.69,1.19,8.69-3.37v-7.55c0-3.79-2.14-7.25-5.53-8.94l-8.94-4.47c-1.02-.51-1.66-1.55-1.66-2.68v-7.25c0-2.17,2.23-3.62,4.21-2.74l16.71,7.37c3.89,1.72,8.44,.78,11.35-2.33l1.19-1.28c3.1-3.32,3.57-8.3,1.16-12.14l-10.93-17.39c-1.49-2.37-.74-5.51,1.66-6.95h0c2.41-1.45,5.17-2.21,7.99-2.21h14.39c6.49,0,12.57-3.15,16.32-8.44l15.58-22c3.68-5.2,4.67-11.84,2.65-17.88l-5.58-16.73c-.56-1.67-.2-3.5,.95-4.84l4.87-5.69c1.68-1.96,4.57-2.32,6.68-.83l15.82,11.17c3.31,2.34,7.88-.03,7.88-4.08v-11.8c0-3.68,2.02-7.05,5.25-8.8l10.89-5.87c11.48-6.2,20.09-16.64,23.98-29.09l6.9-22.08c1.01-3.22-1.4-6.49-4.77-6.49h-3.18c-4.3,0-6.59-5.06-3.76-8.29l10.75-12.29c1.9-2.17,4.64-3.41,7.53-3.41h20.39c9.2,0,18.22-2.54,26.07-7.34l12.59-7.7c1.57-.96,3.37-1.47,5.21-1.47h7.98c4.77,0,6.83,6.05,3.05,8.96l-22.72,17.48c-2.86,2.2-4.31,5.77-3.8,9.34l2.17,15.17c.6,4.19,5.82,5.79,8.66,2.65l19.84-21.93c.99-1.1,1.73-2.4,2.16-3.82l3.21-10.64c1.27-4.22,5.16-7.11,9.57-7.11h12.97Zm-447.88,108.3c0,6.75-6.54,11.56-12.98,9.54l-5.59-1.75c-3.37-1.05-5.93-3.8-6.75-7.23l-4.89-20.53c-.8-3.38,.2-6.93,2.66-9.39l2.07-2.07c4.58-4.58,12.23-3.67,15.6,1.86l8.41,13.76c.96,1.57,1.47,3.37,1.47,5.21v10.58Z"/>
      <polygon class="cls-1" points="824.93 542.65 819.93 583.65 838.01 583.65 848.93 538.65 843.93 526.65 824.93 542.65"/>
      <path class="cls-1" d="M1199.33,312.41l-9.56,15.85c-.54,.89-1.39,1.55-2.4,1.83l-23.45,6.7c-1.77,.51-2.99,2.12-2.99,3.96v4.1c0,2.83,2.79,4.82,5.47,3.89l32.49-11.3c1.27-.44,2.25-1.48,2.61-2.78l5.31-19.03c.61-2.2-.68-4.48-2.88-5.08-1.78-.48-3.66,.27-4.61,1.85Z"/>
      <path class="cls-1" d="M1205.51,289.4l-4.13,6.38c-1.92,2.97,.21,6.88,3.74,6.88h5.83c.65,0,1.28-.14,1.87-.41l4.76-2.2c3.19-1.47,3.5-5.88,.55-7.79l-6.46-4.18c-2.07-1.34-4.83-.75-6.16,1.32Z"/>
      <path class="cls-1" d="M1212.36,274.3l3.63-4.47c.58-.72,.72-1.7,.35-2.55l-3.63-8.47c-1.07-2.49-4.78-1.73-4.78,.98v12.94c0,2.35,2.95,3.39,4.42,1.57Z"/>
      <path class="cls-1" d="M1123.98,403.65h-1.72c-3.04,0-5.6,2.27-5.96,5.29l-1.24,10.35c-.52,4.39,3.73,7.82,7.91,6.38h0c1.85-.64,3.28-2.14,3.82-4.02l2.96-10.35c1.09-3.83-1.78-7.65-5.77-7.65Z"/>
      <path class="cls-1" d="M1038.1,461.89c-1.39-1.43-3.29-2.24-5.29-2.24-5.69,0-9.23,6.19-6.34,11.1l14.98,25.4c.95,1.61,2.47,2.79,4.26,3.32l8.12,2.39c3.5,1.03,7.23-.66,8.76-3.98l1.23-2.65c1.27-2.76,.72-6.02-1.39-8.2l-24.33-25.14Z"/>
      <path class="cls-1" d="M1113.93,514.44c0-2.24-1.48-4.22-3.63-4.85l-33.57-9.83c-2.23-.65-4.61,.3-5.78,2.3l-1.47,2.53c-1.74,2.98-.04,6.79,3.33,7.49l35.05,7.3c3.14,.65,6.08-1.74,6.08-4.95Z"/>
      <path class="cls-1" d="M1109.18,455.41l-18.13,14.35c-.74,.59-1.59,1.02-2.5,1.28l-4.46,1.27c-4.28,1.22-6.44,5.99-4.55,10.01l3.1,6.58c.82,1.75,2.32,3.1,4.15,3.74l10.71,3.75c3.61,1.26,7.58-.51,9.05-4.04l7.18-17.23c.13-.32,.29-.64,.47-.94l5.65-9.42c1.79-2.98,1.2-6.8-1.39-9.11-2.62-2.33-6.53-2.44-9.28-.26Z"/>
      <path class="cls-1" d="M1133.48,485.7l5.46-2.62c1.54-.74,2.01-2.71,.97-4.07l-1.58-2.05c-.81-1.05-2.25-1.35-3.41-.73l-4.61,2.5c-2.06,1.11-4.46-.75-3.89-3.02l.22-.87c.54-2.15-1.6-3.99-3.65-3.14-.67,.28-1.21,.82-1.47,1.51l-7.19,18.43c-.25,.64-.25,1.36,.02,2l3.41,8.33c.41,1.01,1.4,1.67,2.49,1.67h0c1.49,0,2.69-1.2,2.69-2.69v-2.26c0-2.7,3.53-3.72,4.97-1.44l2.73,4.33c.74,1.17,2.24,1.59,3.48,.97l4.37-2.18c1.68-.84,2-3.09,.64-4.37l-6.31-5.92c-1.38-1.29-1.03-3.57,.68-4.39Z"/>
      <path class="cls-1" d="M1214.95,486.65h-23.22c-.52,0-1.02,.14-1.46,.41l-3.44,2.12c-1.32,.81-3.04,.4-3.85-.92l-6.74-10.99c-.74-1.21-2.27-1.67-3.56-1.07l-7.74,3.59c-1.86,.86-2.19,3.37-.61,4.68l1.84,1.53c.5,.42,1.14,.65,1.79,.65h3.17c1.1,0,2.1,.65,2.55,1.66l3.83,8.61c.28,.63,.79,1.14,1.42,1.42l11.54,5.1c.32,.14,.6,.34,.85,.58l5.04,5.04c.38,.38,.87,.65,1.4,.76l18.19,3.83,8.34,1.77c3.26,.69,4.78-3.88,1.74-5.27-.69-.32-1.22-.9-1.47-1.62l-6.96-20c-.39-1.12-1.45-1.88-2.64-1.88Z"/>
      <path class="cls-1" d="M1225.95,556.04c-.32-.37-.58-.79-.77-1.23l-9.2-21.38c-1.63-3.78-6.93-3.91-8.74-.22l-5.5,11.19c-1.2,2.45-4.2,3.41-6.6,2.12l-10.21-5.5c-1.56-.84-2.53-2.47-2.53-4.24v-4.68c0-2.06-1.31-3.89-3.25-4.55l-8.15-2.8c-1.65-.57-3.47-.2-4.77,.96l-11.38,10.15c-1.64,1.46-4.05,1.63-5.88,.41-2-1.34-4.69-.99-6.28,.82l-18.86,21.34c-.58,.66-1.33,1.14-2.17,1.41l-22.38,7.02c-2.45,.77-3.87,3.32-3.22,5.81l11.71,45.01c.67,2.56,3.28,4.11,5.84,3.45l52.14-13.23c1.35-.34,2.79-.08,3.94,.72l24.38,16.99c.7,.49,1.26,1.16,1.62,1.94l2.85,6.21c.63,1.37,1.87,2.37,3.34,2.69l18,3.96c1.06,.23,2.17,.1,3.14-.37l13.93-6.79c1.1-.54,1.95-1.47,2.39-2.61l14.57-38.19c.63-1.65,.3-3.51-.85-4.85l-27.11-31.56Z"/>
      <path class="cls-1" d="M1226.76,650.01h-2.77c-3.51,0-5.75,3.74-4.1,6.83l.74,1.38c1.3,2.43,4.41,3.2,6.69,1.66l2.04-1.38c1.83-1.23,2.54-3.59,1.69-5.63-.72-1.74-2.41-2.87-4.29-2.87Z"/>
      <path class="cls-1" d="M1344.71,633.58c-.9,.11-1.8-.17-2.49-.76l-4.95-4.28c-2.57-2.22-6.39,.52-5.1,3.67l1.13,2.76c.47,1.14,.25,2.45-.57,3.37l-.48,.54c-.99,1.12-1.09,2.77-.23,4l4.72,6.74c1.39,1.99,4.39,1.79,5.51-.36l5.71-10.97c1.2-2.3-.67-5-3.24-4.7Z"/>
      <path class="cls-1" d="M1329.56,651.53c-1.51-.91-3.44-.75-4.78,.4l-19.06,16.29c-2.52,2.15-1.58,6.25,1.62,7.09l4.81,1.27c1.56,.41,3.22-.13,4.24-1.38l14.25-17.56c1.57-1.94,1.07-4.83-1.08-6.11Z"/>
    </g>
    <g>
      <path class="cls-26" d="M504.1,486.65l-32.34-11.41c-3.65-1.29-6.77-3.76-8.87-7.02l-11.28-17.55-63.02-25.21c-6.19-2.48-13.04-2.81-19.45-.95l-26.57,7.71c-7.09,2.06-14.33-2.74-15.2-10.08l-.55-4.68c-.57-4.83-4.93-8.3-9.76-7.76-3.31,.37-6.38-1.77-7.19-5l-1.23-4.93c-1.25-5.02-6.04-8.33-11.18-7.72l-6.89,.81c-6.82,.8-13.35-3.03-15.96-9.39l-2.24-5.44c-2.7-6.56-.47-14.12,5.37-18.16l5.22-3.61c3.65-2.53,8.23-3.32,12.52-2.17l24.37,6.56c6.42,1.73,13.21-.94,16.73-6.58l18.27-29.23,18.45-26.97c1.64-2.4,3.95-4.28,6.63-5.4l49.21-20.6c8.47-3.54,11.84-13.76,7.14-21.65l-27.79-46.69c-2.31-3.87-6.22-6.51-10.68-7.2l-37.47-5.76c-9.48-1.46-17.9,6.18-17.37,15.76l.85,15.38c.62,11.13-10.63,19.07-20.91,14.76l-23.33-9.78c-2.88-1.21-5.31-3.28-6.96-5.92l-6.19-9.91c-4.17-6.68-2.51-15.44,3.82-20.13l17.83-13.21c7.56-5.6,8.21-16.68,1.36-23.12l-5.68-5.35c-5.05-4.75-12.68-5.45-18.51-1.71l-9.13,5.87c-2.31,1.49-4.99,2.31-7.73,2.39l-49.42,1.41c-1.87,.05-3.74-.24-5.51-.87l-60.06-21.45c-3.24-1.16-6.78-1.17-10.04-.04l-27.58,9.59c-2.92,1.02-6.09,1.11-9.07,.27l-64.12-18.12c-3.55-1-7.34-.67-10.65,.93l-23.39,11.26c-8.04,3.87-10.99,13.83-6.35,21.45l9.29,15.26c2.86,4.69,2.94,10.57,.21,15.34-4.51,7.88-1.08,17.93,7.3,21.43l14.54,6.06c5.16,2.15,11.09,1.27,15.4-2.28l13.89-11.44c4.05-3.34,9.54-4.33,14.5-2.62l39.71,13.65c2.57,.88,4.85,2.44,6.6,4.51l38.89,45.84c2.31,2.73,3.59,6.19,3.59,9.77v30.84c0,3.59,1.28,7.06,3.6,9.79l70.59,82.87,61.08,19.89c5.35,1.74,9.94,5.28,12.98,10.02l4.43,6.9c3.39,5.27,9.05,8.65,15.29,9.13l.95,.07c5.27,.41,8.89,5.47,7.57,10.59l-7.98,30.94c-1.49,5.77,.07,11.89,4.12,16.25l30.91,33.2c3.85,4.13,5.46,9.87,4.32,15.4l-10.74,52.36c-.24,1.15-.36,2.33-.36,3.51v70.29c0,4.47,1.72,8.77,4.8,12.02h0c10.22,10.76,28.35,4.66,29.99-10.09l3.32-29.84c.39-3.54,1.86-6.88,4.21-9.56l50.69-57.93c1.43-1.63,3.14-2.98,5.06-3.98l28.32-14.77c3.78-1.97,6.71-5.27,8.23-9.26l17.08-44.84c3.49-9.16-1.25-19.4-10.5-22.66Z"/>
      <path class="cls-26" d="M175.73,132.23l19.99,9.16c1.75,.8,3.66,1.22,5.59,1.22h27.93c11.26,0,17.51-13.05,10.44-21.82l-1.11-1.38c-2.92-3.62-7.51-5.48-12.13-4.89l-14.43,1.83c-2.32,.29-4.68-.02-6.83-.92l-18.7-7.77c-5.39-2.24-11.61-.74-15.38,3.72-5.73,6.77-3.42,17.15,4.65,20.85Z"/>
      <path class="cls-26" d="M361.3,164.7c-3.09,4.85-.28,11.29,5.39,12.32l26.62,4.84c6.34,1.15,11.42-5.19,8.91-11.13l-10.97-25.93c-.61-1.43-1.61-2.66-2.9-3.54l-41.43-28.23c-1.4-.95-3.06-1.44-4.75-1.4l-71.18,1.63c-6.17,.14-9.92,6.85-6.81,12.18l6.41,10.98c2.06,3.53,6.43,4.97,10.19,3.36l23.84-10.22c2.19-.94,4.68-.87,6.81,.2l46.67,23.34c4.3,2.15,5.79,7.54,3.21,11.59h0Z"/>
      <path class="cls-26" d="M190.24,98.19l18.22,5.71h120.49c6.81,0,12.86-4.31,15.1-10.74l7.1-20.42c1.33-3.82,4.05-6.99,7.62-8.88l28.66-15.17c6.16-3.26,4.33-12.53-2.6-13.21l-36.18-3.57c-1.33-.13-2.67-.1-3.99,.11l-89.51,13.67c-1.92,.29-3.77,.93-5.46,1.89l-61.16,34.63c-6.67,3.78-5.62,13.7,1.7,15.99Z"/>
      <path class="cls-26" d="M592.84,47.47l-60.8-21.53c-1.98-.7-4.1-.9-6.17-.57l-97.49,15.23c-1.7,.27-3.34,.88-4.8,1.8l-46.3,29.24c-4.72,2.98-3.48,10.17,1.96,11.4l31.17,7.04c2.65,.6,5.04,2.04,6.81,4.1l23.43,27.33c1.87,2.18,2.94,4.92,3.03,7.79l1.28,37.19c.11,3.3,1.52,6.43,3.91,8.71l21.28,20.26c3.92,3.74,10.42,1.8,11.66-3.47l2.25-9.55c.89-3.77,3.45-6.92,6.95-8.55l60.54-28.25c4.03-1.88,6.77-5.74,7.22-10.16l5.11-49.79c.39-3.79,2.47-7.2,5.65-9.28l24.82-16.23c4.95-3.24,4.05-10.74-1.52-12.72Z"/>
      <path class="cls-26" d="M1317.39,203.9c2.33,0,4.58-.81,6.38-2.3l21.37-17.69c4.99-4.13,4.8-11.84-.39-15.72l-31.59-23.6c-1.73-1.29-3.83-1.99-5.98-1.99h-21.72c-3.12,0-6.07-1.46-7.96-3.94l-7.59-9.98c-1.84-2.42-4.67-3.87-7.71-3.94l-59.7-1.49-31.96,1.32c-4.56,.19-9.04-1.19-12.71-3.89l-7.04-5.19c-3.44-2.54-7.6-3.91-11.88-3.91h-53.39c-1.86,0-3.57-1.03-4.43-2.68l-1.18-2.26c-6.41-12.23-20.34-18.51-33.74-15.21l-50.67,12.47-22.86,17.49c-1.59,1.22-3.51,1.93-5.52,2.04l-22.03,1.24c-2.33,.13-4.63-.56-6.5-1.94l-6.43-4.75c-4.68-3.46-11.31-2.2-14.41,2.72l-11.4,18.14c-1.51,2.4-3.96,4.04-6.75,4.53l-68.06,11.89c-9.5,1.66-19.28,.54-28.16-3.24l-28.85-12.26c-11.3-4.8-23.97-5.28-35.6-1.34l-15.45,5.23c-8.5,2.88-16.08,8-21.92,14.82l-27.25,31.79c-2.62,3.05-3.15,7.38-1.35,10.98l1.77,3.53c1.69,3.39,5.16,5.53,8.94,5.53,4.37,0,6.94,4.9,4.46,8.49l-20.97,30.41c-2.07,3.01-4.93,5.39-8.26,6.88l-15.95,7.18c-4.97,2.24-7.24,8.05-5.09,13.06l.07,.16c2.57,5.99-1.19,12.8-7.63,13.82l-7.36,1.16c-4.86,.77-8.44,4.96-8.44,9.88v8.51c0,3.97,2.95,7.31,6.89,7.8l12.87,1.61c2.64,.33,5.28-.7,6.99-2.74l10.11-12.02c2.32-2.76,5.34-4.84,8.75-6.02l22.89-7.94c3.91-1.36,8.26-.16,10.93,3.01l9.68,11.49c2.26,2.68,6.57,.37,5.59-3l-2.86-9.8c-1.24-4.26,3.26-7.91,7.17-5.8l8.98,4.84,9.94,16.57c3.33,5.55,11.55,4.93,14.02-1.05l2.47-5.99c1.35-3.29,3.61-6.12,6.52-8.17l12.28-8.67c5.32-3.76,12.37-3.99,17.93-.59l21.23,12.98c3.34,2.04,1.04,7.17-2.71,6.03l-12.86-3.92c-5.66-1.73-11.77-1.21-17.07,1.43l-6.79,3.39c-6.61,3.29-9.29,11.33-5.99,17.93l.1,.21c1.72,3.43,5.56,5.13,9.2,4.1,2.86-.81,6.33-1.79,9.54-2.69,5.02-1.42,10,2.36,10,7.57v7.55c0,4.34-3.52,7.87-7.87,7.87h-44.82c-1.41,0-2.8-.38-4.01-1.1l-39.24-23.25c-1.59-.94-3.46-1.29-5.28-1l-62.08,10.14c-8.66,1.41-15.78,7.6-18.4,15.98l-18.75,60.1c-2.69,8.62-.13,18.01,6.55,24.07l24.28,22.03c5.18,4.7,12.39,6.43,19.13,4.59l17.91-4.89c4.37-1.19,9.02-.9,13.21,.83l7.22,2.99c6.09,2.52,10.59,7.82,12.1,14.24l9.05,38.6c.43,1.85,.61,3.75,.52,5.64l-1.24,25.97c-.16,3.32,.49,6.62,1.89,9.63l24.03,51.71c4.32,9.3,14.94,13.88,24.68,10.64l.27-.09c4.55-1.52,8.37-4.5,10.9-8.49,7.42-11.69,23.31-36.65,28.35-44.58,1.05-1.64,2.32-3.13,3.79-4.41l15.01-13.13c5.34-4.67,7.88-11.77,6.71-18.76l-4.38-26.25c-1.13-6.79,1.23-13.7,6.28-18.38l28.89-26.75c4.18-3.87,6.56-9.31,6.56-15.01v-5.23c0-5.34-5.21-9.13-10.3-7.48l-15.75,5.12c-3.6,1.17-7.52-.39-9.34-3.71l-4.15-7.6c-4.46-8.17,6.46-15.94,12.72-9.06l.68,.75c2.14,2.36,5.5,3.19,8.49,2.11l41.47-14.98c5.42-1.96,6.96-8.88,2.89-12.96l-1.85-1.85c-1.47-1.48-3.48-2.3-5.56-2.3h-11.53c-2.82,0-5.43-1.51-6.83-3.96l-3.11-5.45c-3.95-6.91,3.69-14.64,10.65-10.78l18.09,10.05c.55,.31,1.14,.55,1.75,.71l24.22,6.6c6.69,1.83,12.54,5.91,16.56,11.57l25.73,36.21c4.78,6.72,15.18,5.1,17.68-2.76l4.18-13.15c.67-2.1,2.01-3.92,3.82-5.18l19.04-13.25c8.6-5.99,20.37-4.31,26.97,3.83l15.72,19.42v23.54c0,2.5,.93,4.9,2.62,6.75l14.5,15.86c3.08,3.37,8.69,1.19,8.69-3.37v-7.55c0-3.79-2.14-7.25-5.53-8.94l-8.94-4.47c-1.02-.51-1.66-1.55-1.66-2.68v-7.25c0-2.17,2.23-3.62,4.21-2.74l16.71,7.37c3.89,1.72,8.44,.78,11.35-2.33l1.19-1.28c3.1-3.32,3.57-8.3,1.16-12.14l-10.93-17.39c-1.49-2.37-.74-5.51,1.66-6.95h0c2.41-1.45,5.17-2.21,7.99-2.21h14.39c6.49,0,12.57-3.15,16.32-8.44l15.58-22c3.68-5.2,4.67-11.84,2.65-17.88l-5.58-16.73c-.56-1.67-.2-3.5,.95-4.84l4.87-5.69c1.68-1.96,4.57-2.32,6.68-.83l15.82,11.17c3.31,2.34,7.88-.03,7.88-4.08v-11.8c0-3.68,2.02-7.05,5.25-8.8l10.89-5.87c11.48-6.2,20.09-16.64,23.98-29.09l6.9-22.08c1.01-3.22-1.4-6.49-4.77-6.49h-3.18c-4.3,0-6.59-5.06-3.76-8.29l10.75-12.29c1.9-2.17,4.64-3.41,7.53-3.41h20.39c9.2,0,18.22-2.54,26.07-7.34l12.59-7.7c1.57-.96,3.37-1.47,5.21-1.47h7.98c4.77,0,6.83,6.05,3.05,8.96l-22.72,17.48c-2.86,2.2-4.31,5.77-3.8,9.34l2.17,15.17c.6,4.19,5.82,5.79,8.66,2.65l19.84-21.93c.99-1.1,1.73-2.4,2.16-3.82l3.21-10.64c1.27-4.22,5.16-7.11,9.57-7.11h12.97Zm-447.88,108.3c0,6.75-6.54,11.56-12.98,9.54l-5.59-1.75c-3.37-1.05-5.93-3.8-6.75-7.23l-4.89-20.53c-.8-3.38,.2-6.93,2.66-9.39l2.07-2.07c4.58-4.58,12.23-3.67,15.6,1.86l8.41,13.76c.96,1.57,1.47,3.37,1.47,5.21v10.58Z"/>
      <polygon class="cls-26" points="824.93 534.7 819.93 575.7 838.01 575.7 848.93 530.7 843.93 518.7 824.93 534.7"/>
      <path class="cls-26" d="M1199.33,304.46l-9.56,15.85c-.54,.89-1.39,1.55-2.4,1.83l-23.45,6.7c-1.77,.51-2.99,2.12-2.99,3.96v4.1c0,2.83,2.79,4.82,5.47,3.89l32.49-11.3c1.27-.44,2.25-1.48,2.61-2.78l5.31-19.03c.61-2.2-.68-4.48-2.88-5.08-1.78-.48-3.66,.27-4.61,1.85Z"/>
      <path class="cls-26" d="M1205.51,281.45l-4.13,6.38c-1.92,2.97,.21,6.88,3.74,6.88h5.83c.65,0,1.28-.14,1.87-.41l4.76-2.2c3.19-1.47,3.5-5.88,.55-7.79l-6.46-4.18c-2.07-1.34-4.83-.75-6.16,1.32Z"/>
      <path class="cls-26" d="M1212.36,266.34l3.63-4.47c.58-.72,.72-1.7,.35-2.55l-3.63-8.47c-1.07-2.49-4.78-1.73-4.78,.98v12.94c0,2.35,2.95,3.39,4.42,1.57Z"/>
      <path class="cls-26" d="M1123.98,395.7h-1.72c-3.04,0-5.6,2.27-5.96,5.29l-1.24,10.35c-.52,4.39,3.73,7.82,7.91,6.38h0c1.85-.64,3.28-2.14,3.82-4.02l2.96-10.35c1.09-3.83-1.78-7.65-5.77-7.65Z"/>
      <path class="cls-26" d="M1038.1,453.94c-1.39-1.43-3.29-2.24-5.29-2.24-5.69,0-9.23,6.19-6.34,11.1l14.98,25.4c.95,1.61,2.47,2.79,4.26,3.32l8.12,2.39c3.5,1.03,7.23-.66,8.76-3.98l1.23-2.65c1.27-2.76,.72-6.02-1.39-8.2l-24.33-25.14Z"/>
      <path class="cls-26" d="M1113.93,506.49c0-2.24-1.48-4.22-3.63-4.85l-33.57-9.83c-2.23-.65-4.61,.3-5.78,2.3l-1.47,2.53c-1.74,2.98-.04,6.79,3.33,7.49l35.05,7.3c3.14,.65,6.08-1.74,6.08-4.95Z"/>
      <path class="cls-26" d="M1109.18,447.46l-18.13,14.35c-.74,.59-1.59,1.02-2.5,1.28l-4.46,1.27c-4.28,1.22-6.44,5.99-4.55,10.01l3.1,6.58c.82,1.75,2.32,3.1,4.15,3.74l10.71,3.75c3.61,1.26,7.58-.51,9.05-4.04l7.18-17.23c.13-.32,.29-.64,.47-.94l5.65-9.42c1.79-2.98,1.2-6.8-1.39-9.11-2.62-2.33-6.53-2.44-9.28-.26Z"/>
      <path class="cls-26" d="M1133.48,477.75l5.46-2.62c1.54-.74,2.01-2.71,.97-4.07l-1.58-2.05c-.81-1.05-2.25-1.35-3.41-.73l-4.61,2.5c-2.06,1.11-4.46-.75-3.89-3.02l.22-.87c.54-2.15-1.6-3.99-3.65-3.14-.67,.28-1.21,.82-1.47,1.51l-7.19,18.43c-.25,.64-.25,1.36,.02,2l3.41,8.33c.41,1.01,1.4,1.67,2.49,1.67h0c1.49,0,2.69-1.2,2.69-2.69v-2.26c0-2.7,3.53-3.72,4.97-1.44l2.73,4.33c.74,1.17,2.24,1.59,3.48,.97l4.37-2.18c1.68-.84,2-3.09,.64-4.37l-6.31-5.92c-1.38-1.29-1.03-3.57,.68-4.39Z"/>
      <path class="cls-26" d="M1214.95,478.7h-23.22c-.52,0-1.02,.14-1.46,.41l-3.44,2.12c-1.32,.81-3.04,.4-3.85-.92l-6.74-10.99c-.74-1.21-2.27-1.67-3.56-1.07l-7.74,3.59c-1.86,.86-2.19,3.37-.61,4.68l1.84,1.53c.5,.42,1.14,.65,1.79,.65h3.17c1.1,0,2.1,.65,2.55,1.66l3.83,8.61c.28,.63,.79,1.14,1.42,1.42l11.54,5.1c.32,.14,.6,.34,.85,.58l5.04,5.04c.38,.38,.87,.65,1.4,.76l18.19,3.83,8.34,1.77c3.26,.69,4.78-3.88,1.74-5.27-.69-.32-1.22-.9-1.47-1.62l-6.96-20c-.39-1.12-1.45-1.88-2.64-1.88Z"/>
      <path class="cls-26" d="M1225.95,548.09c-.32-.37-.58-.79-.77-1.23l-9.2-21.38c-1.63-3.78-6.93-3.91-8.74-.22l-5.5,11.19c-1.2,2.45-4.2,3.41-6.6,2.12l-10.21-5.5c-1.56-.84-2.53-2.47-2.53-4.24v-4.68c0-2.06-1.31-3.89-3.25-4.55l-8.15-2.8c-1.65-.57-3.47-.2-4.77,.96l-11.38,10.15c-1.64,1.46-4.05,1.63-5.88,.41-2-1.34-4.69-.99-6.28,.82l-18.86,21.34c-.58,.66-1.33,1.14-2.17,1.41l-22.38,7.02c-2.45,.77-3.87,3.32-3.22,5.81l11.71,45.01c.67,2.56,3.28,4.11,5.84,3.45l52.14-13.23c1.35-.34,2.79-.08,3.94,.72l24.38,16.99c.7,.49,1.26,1.16,1.62,1.94l2.85,6.21c.63,1.37,1.87,2.37,3.34,2.69l18,3.96c1.06,.23,2.17,.1,3.14-.37l13.93-6.79c1.1-.54,1.95-1.47,2.39-2.61l14.57-38.19c.63-1.65,.3-3.51-.85-4.85l-27.11-31.56Z"/>
      <path class="cls-26" d="M1226.76,642.06h-2.77c-3.51,0-5.75,3.74-4.1,6.83l.74,1.38c1.3,2.43,4.41,3.2,6.69,1.66l2.04-1.38c1.83-1.23,2.54-3.59,1.69-5.63-.72-1.74-2.41-2.87-4.29-2.87Z"/>
      <path class="cls-26" d="M1344.71,625.62c-.9,.11-1.8-.17-2.49-.76l-4.95-4.28c-2.57-2.22-6.39,.52-5.1,3.67l1.13,2.76c.47,1.14,.25,2.45-.57,3.37l-.48,.54c-.99,1.12-1.09,2.77-.23,4l4.72,6.74c1.39,1.99,4.39,1.79,5.51-.36l5.71-10.97c1.2-2.3-.67-5-3.24-4.7Z"/>
      <path class="cls-26" d="M1329.56,643.58c-1.51-.91-3.44-.75-4.78,.4l-19.06,16.29c-2.52,2.15-1.58,6.25,1.62,7.09l4.81,1.27c1.56,.41,3.22-.13,4.24-1.38l14.25-17.56c1.57-1.94,1.07-4.83-1.08-6.11Z"/>
    </g>
  </g>
  <path class="cls-41" d="M249.44,65.35c0,36.09-65.35,123.77-65.35,123.77,0,0-65.35-87.68-65.35-123.77S148,0,184.09,0s65.35,29.26,65.35,65.35Z"/>
  <circle class="cls-41" cx="1165.06" cy="554.27" r="10"/>
  <circle class="cls-41" cx="752.3" cy="516.54" r="10"/>
  <circle class="cls-41" cx="776.13" cy="183.15" r="10"/>
  <circle class="cls-41" cx="517.49" cy="65.88" r="10"/>
  <circle class="cls-41" cx="392.93" cy="604.82" r="10"/>
  <circle class="cls-41" cx="305.39" cy="275.87" r="10"/>
  <path class="cls-3" d="M974.35,652.81c-1.42-1.04-3.58-.75-4.59,.9-1.02,1.65-.63,3.88,1.08,4.71,1.71,.82,3.19,.28,4.08-.86,.89-1.14,1.24-3.43-.56-4.76h0Z"/>
  <path class="cls-4" d="M981.6,651.46c-.97,1.01-.78,2.43,.07,3.25s2.43,.49,3.02-.12c.86-.86,.9-2.51,0-3.29-.71-.62-2-.96-3.09,.16Z"/>
  <path class="cls-3" d="M950.89,639.81c-1.86-.12-2.99,1.72-2.92,3.02,.07,1.31,.89,2.95,3.18,2.99,2.65,.04,2.95-2.7,2.73-3.7-.14-.61-.6-2.16-2.99-2.31h0Z"/>
  <path class="cls-3" d="M1014.33,640.96c-.95,1.01-1.31,2.85-.04,3.96,1.08,.94,2.87,.71,3.73-.41,.85-1.12,.53-2.84-.22-3.62-.74-.8-2.38-1.09-3.47,.07h0Z"/>
  <path class="cls-25" d="M115.36,49.53h-1.05c-.13,0-.22-.09-.22-.22v-1.41c0-.13,.09-.22,.22-.22h1.05v1.86Z"/>
  <path class="cls-14" d="M115.59,49.76h-1.28c-.25,0-.45-.2-.45-.45v-1.41c0-.25,.2-.45,.45-.45h1.28v2.31Zm-1.28-1.86v1.41h.83v-1.41h-.83Z"/>
  <g>
    <path class="cls-12" d="M184.09,5.88h0c32.3,0,58.49,26.19,58.49,58.49h0c0,32.3-26.19,58.49-58.49,58.49h0c-32.3,0-58.49-26.19-58.49-58.49h0c0-32.3,26.19-58.49,58.49-58.49Z"/>
    <g class="cls-31">
      <g>
        <path class="cls-40" d="M161.96,42.62c-.31,0-.63-.1-.89-.31l-3.57-2.86c-.62-.49-.72-1.39-.22-2.01,.49-.62,1.39-.72,2.01-.22l3.57,2.86c.61,.49,.72,1.39,.22,2.01-.28,.35-.7,.54-1.12,.54Z"/>
        <path class="cls-40" d="M206.23,42.62c-.42,0-.83-.18-1.12-.54-.49-.62-.39-1.51,.22-2.01l3.57-2.86c.62-.49,1.51-.39,2.01,.22,.49,.62,.39,1.51-.22,2.01l-3.57,2.86c-.26,.21-.58,.31-.89,.31Z"/>
        <path class="cls-11" d="M164.1,102.6c-.79,0-1.43-.64-1.43-1.43V58.33c0-.79,.64-1.43,1.43-1.43s1.43,.64,1.43,1.43v42.84c0,.79-.64,1.43-1.43,1.43Z"/>
        <path class="cls-11" d="M204.09,102.6c-.79,0-1.43-.64-1.43-1.43V58.33c0-.79,.64-1.43,1.43-1.43s1.43,.64,1.43,1.43v42.84c0,.79-.64,1.43-1.43,1.43Z"/>
        <path class="cls-16" d="M166.24,39.76h-4.28c-.79,0-1.43,.64-1.43,1.43v17.14c0,.79,.64,1.43,1.43,1.43h4.28c.79,0,1.43-.64,1.43-1.43v-17.14c0-.79-.64-1.43-1.43-1.43Z"/>
        <path class="cls-16" d="M206.23,39.76h-4.28c-.79,0-1.43,.64-1.43,1.43v17.14c0,.79,.64,1.43,1.43,1.43h4.28c.79,0,1.43-.64,1.43-1.43v-17.14c0-.79-.64-1.43-1.43-1.43Z"/>
        <path class="cls-16" d="M181.24,102.6h-8.57c-.79,0-1.43-.64-1.43-1.43V44.05c0-1.64,.57-3.97,1.46-5.94,1.19-2.65,2.67-4.06,4.28-4.06s3.09,1.4,4.26,4.06c.87,1.96,1.43,4.29,1.43,5.93v57.12c0,.79-.64,1.43-1.43,1.43Z"/>
        <path class="cls-32" d="M176.98,34.05c-1.61,0-3.09,1.4-4.28,4.06-.88,1.97-1.46,4.3-1.46,5.94h11.43c0-1.65-.56-3.97-1.43-5.93-1.18-2.66-2.65-4.06-4.26-4.06Z"/>
        <path class="cls-16" d="M195.52,102.6h-8.57c-.79,0-1.43-.64-1.43-1.43V44.05c0-1.64,.57-3.97,1.46-5.94,1.19-2.65,2.67-4.06,4.28-4.06s3.09,1.4,4.26,4.06c.87,1.96,1.42,4.29,1.42,5.93v57.12c0,.79-.64,1.43-1.43,1.43Z"/>
        <path class="cls-5" d="M189.81,79.75c-.6,0-1.15-.38-1.35-.98l-2.86-8.57c-.25-.75,.15-1.56,.9-1.81,.75-.25,1.56,.15,1.81,.9l2.86,8.57c.25,.75-.15,1.56-.9,1.81-.15,.05-.3,.08-.45,.08Z"/>
        <path class="cls-5" d="M192.67,79.75c-.15,0-.3-.03-.45-.08-.75-.25-1.15-1.06-.9-1.81l2.86-8.57c.25-.75,1.06-1.15,1.81-.9,.75,.25,1.15,1.06,.9,1.81l-2.86,8.57c-.2,.6-.76,.98-1.35,.98Z"/>
        <path class="cls-20" d="M196.94,69.65h0c-.01-.14-.12-1.41-.81-2.72-1-1.87-2.74-2.9-4.9-2.9s-3.9,1.03-4.9,2.9c-.7,1.3-.8,2.58-.81,2.72,0,.02,0,.03,0,.05,0,.02,0,.03,0,.05,0,0,0,.02,0,.02,0,.03,0,.05,0,.08,0,.02,0,.04,0,.07,0,.03,0,.05,.01,.08,0,.02,0,.04,.01,.07,0,.02,.01,.05,.02,.07,0,.02,.01,.05,.02,.07,0,.02,.02,.04,.03,.06,0,.02,.02,.04,.03,.07,.01,.02,.02,.04,.03,.06,.01,.02,.02,.04,.03,.07,.01,.02,.02,.04,.03,.05,.01,.02,.03,.04,.04,.06,.01,.02,.03,.04,.04,.05,.01,.02,.03,.04,.05,.06,.01,.02,.03,.03,.04,.05,.02,.02,.03,.03,.05,.05,.02,.02,.03,.03,.05,.05,.02,.01,.03,.03,.05,.04,.02,.01,.04,.03,.06,.04,.02,.01,.04,.03,.05,.04,.02,.01,.04,.03,.06,.04,.02,.01,.04,.02,.06,.03,.02,.01,.04,.02,.06,.03,.02,0,.04,.02,.06,.03,.02,0,.04,.01,.06,.02,.02,0,.05,.02,.07,.03,.02,0,.04,0,.06,.01,.03,0,.05,.01,.08,.02,.02,0,.04,0,.06,0,.03,0,.05,0,.08,0,0,0,.01,0,.02,0,.03,0,.07,0,.1,0h8.57c.79,0,1.43-.64,1.43-1.43,0-.03,0-.06,0-.1Z"/>
        <path class="cls-5" d="M175.52,79.75c-.6,0-1.15-.38-1.35-.98l-2.86-8.57c-.25-.75,.15-1.56,.9-1.81,.75-.25,1.56,.15,1.81,.9l2.86,8.57c.25,.75-.15,1.56-.9,1.81-.15,.05-.3,.08-.45,.08Z"/>
        <path class="cls-5" d="M178.38,79.75c-.15,0-.3-.03-.45-.08-.75-.25-1.15-1.06-.9-1.81l2.86-8.57c.25-.75,1.06-1.15,1.81-.9,.75,.25,1.15,1.06,.9,1.81l-2.86,8.57c-.2,.6-.76,.98-1.36,.98Z"/>
        <path class="cls-20" d="M182.66,69.65c0-.14-.11-1.41-.81-2.72-1-1.87-2.74-2.9-4.9-2.9s-3.9,1.03-4.9,2.9c-.7,1.3-.8,2.58-.81,2.72v.05s0,.03,0,.05c0,0,0,.02,0,.02,0,.03,0,.05,0,.08,0,.02,0,.04,0,.07,0,.03,0,.05,.01,.08,0,.02,0,.04,.01,.07,0,.02,.01,.05,.02,.07,0,.02,.01,.05,.02,.07,0,.02,.01,.04,.02,.06,0,.02,.02,.04,.03,.07,0,.02,.02,.04,.03,.06,.01,.02,.02,.04,.03,.07,.01,.02,.02,.04,.03,.05,.01,.02,.03,.04,.04,.06,.01,.02,.03,.04,.04,.05,.01,.02,.03,.04,.04,.06,.01,.02,.03,.03,.04,.05,.02,.02,.03,.03,.05,.05,.02,.02,.04,.03,.05,.05,.02,.01,.03,.03,.05,.04,.02,.01,.04,.03,.06,.04,.02,.01,.03,.03,.05,.04,.02,.01,.04,.03,.06,.04,.02,.01,.04,.02,.06,.03,.02,.01,.04,.02,.06,.03,.02,0,.04,.02,.06,.03,.02,0,.04,.01,.06,.02,.02,0,.05,.02,.07,.03,.02,0,.04,0,.06,.01,.03,0,.05,.01,.08,.02,.02,0,.04,0,.06,0,.03,0,.05,0,.08,0,0,0,.01,0,.02,0,.03,0,.07,0,.1,0h8.57c.79,0,1.43-.64,1.43-1.43,0-.03,0-.06,0-.1Z"/>
        <path class="cls-40" d="M166.96,99.74h-5.71c-.79,0-1.43-.64-1.43-1.43s.64-1.43,1.43-1.43h5.71c.79,0,1.43,.64,1.43,1.43s-.64,1.43-1.43,1.43Z"/>
        <path class="cls-32" d="M167.67,45.47h-7.14v2.86h7.14v-2.86Z"/>
        <path class="cls-32" d="M167.67,51.19h-7.14v2.86h7.14v-2.86Z"/>
        <path class="cls-32" d="M207.66,45.47h-7.14v2.86h7.14v-2.86Z"/>
        <path class="cls-32" d="M207.66,51.19h-7.14v2.86h7.14v-2.86Z"/>
        <path class="cls-40" d="M206.94,99.74h-5.71c-.79,0-1.43-.64-1.43-1.43s.64-1.43,1.43-1.43h5.71c.79,0,1.43,.64,1.43,1.43s-.64,1.43-1.43,1.43Z"/>
        <path class="cls-32" d="M191.26,34.05c-1.61,0-3.09,1.4-4.28,4.06-.89,1.97-1.46,4.3-1.46,5.94h11.42c0-1.65-.56-3.97-1.42-5.93-1.18-2.66-2.65-4.06-4.26-4.06Z"/>
      </g>
    </g>
    <path class="cls-25" d="M193.86,98.28h2.45c.31,0,.52-.21,.52-.52v-3.28c0-.31-.21-.52-.52-.52h-2.45v4.32Z"/>
    <path class="cls-14" d="M196.31,98.8h-2.97v-5.37h2.97c.57,0,1.04,.47,1.04,1.04v3.28c0,.57-.47,1.04-1.04,1.04Zm-1.93-1.04h1.93v-3.28h-1.93v3.28Z"/>
    <path class="cls-3" d="M193.08,90.78h-17.5c-1.15,0-2.08,.99-2.08,2.14v6.04c.16,2.81,2.4,5.11,5.21,5.11,1.72,0,3.23-.83,4.17-2.14,.36-.52,.94-.78,1.46-.73,.57,0,1.09,.26,1.46,.73,.94,1.3,2.45,2.14,4.17,2.14,2.76,0,5.05-2.24,5.21-5.11v-6.04c0-1.15-.94-2.14-2.08-2.14Z"/>
    <path class="cls-18" d="M182.14,91.35l-4.43,11.57c.73,.68,1.98,.52,2.71,.63l4.69-12.19h-2.97Zm-4.53,0l-3.13,8.54c.31,.99,.89,1.77,1.41,2.34l4.01-10.68-2.29-.21Z"/>
    <path class="cls-14" d="M193.08,90.78h-17.5c-1.15,0-2.08,.99-2.08,2.14v6.04c.16,2.81,2.4,5.11,5.21,5.11,1.72,0,3.23-.83,4.17-2.14,.36-.52,.89-.73,1.46-.73h.1c.52,0,1.09,.26,1.46,.73,.94,1.3,2.45,2.14,4.17,2.14,2.76,0,5.05-2.24,5.21-5.11v-6.04c-.1-1.15-1.04-2.14-2.19-2.14Zm-11.67,1.04l-4.06,10.94c-.36-.16-.73-.31-1.04-.57l3.86-10.42h1.25v.05Zm-6.88,1.09c0-.63,.47-1.09,1.04-1.09h1.46l-2.5,7.09v-5.99Zm.42,7.66l3.18-8.75h.89l-3.54,9.64c-.21-.26-.36-.57-.52-.89Zm3.44,2.45l4.17-11.2h1.82l-4.01,10.84c-.52,.26-1.09,.36-1.67,.36h-.31Zm15.73-4.32v.26c-.1,2.29-1.93,4.12-4.17,4.12-1.3,0-2.5-.63-3.33-1.72-.52-.73-1.41-1.2-2.29-1.2h-.1c-.89,0-1.67,.42-2.24,1.09l3.44-9.38h7.61c.57,0,1.04,.52,1.04,1.09v5.73h.05Z"/>
  </g>
  <path class="cls-41" d="M482.62,374.44c0,36.09-65.35,123.77-65.35,123.77,0,0-65.35-87.68-65.35-123.77s29.26-65.35,65.35-65.35,65.35,29.26,65.35,65.35Z"/>
  <g>
    <circle class="cls-3" cx="417.27" cy="372.67" r="29.25"/>
    <path class="cls-21" d="M417.27,315.66h0c31.58,0,57.18,25.6,57.18,57.18h0c0,31.58-25.6,57.18-57.18,57.18h0c-31.58,0-57.18-25.6-57.18-57.18h0c0-31.58,25.6-57.18,57.18-57.18Z"/>
    <path class="cls-30" d="M417.47,382.22c-8.78-.3-34.01,2.15-34.01,11.23s19.2,14.61,35.54,14.71c16.34,.1,32.58-5.31,33.19-14.4,.61-9.09-25.94-11.23-34.72-11.54Z"/>
    <path class="cls-22" d="M416.1,350.11c-.97-.08-1.39,1.08-2.03,1.96-.8,1.11-1.89,2.66-2.62,3.11-.73,.45-1.93,1.08-1.77,2.13,.16,1.05,2.09,1.54,2.09,1.54l-.49,1.65-2.54,3.87-4.03,8.87,31.18,6.17s8.69-3.17,9.64-4.23c.69-.77,.81-1.37,.36-2.42-.64-1.51-1.57-2.59-2.58-4.08-.94-1.39-2.11-3.22-2.11-3.22l.9-1.91s.85-1.16,.73-2.33c-.15-1.45-1.01-2.28-1.85-3.61-.84-1.33-2.34-3.62-2.34-3.62l-.86-1.75s2.78-.43,2.57-1.52c-.2-1.09-1.04-1.71-1.52-2.31-.49-.6-2.58-3.39-3.47-4.68-.89-1.29-2.09-3-2.98-3.03-.96-.03-1.67,1.17-2.63,2.67-.97,1.5-1.83,2.83-2.95,3.81-1.82,1.59-3.8,3.54-2.93,4.48,.94,1.01,2.34,2.76,2.34,2.76l-.89,1.3s-1.06,1.45-1.98,2.49c-.76,.86-1.61,1.89-1.61,1.89l-1.93-.73s2.71-1.85,2.79-2.42c.08-.64,.01-1.31-1.61-2.06-1.51-.7-2.67-2.53-3.15-3.22-.49-.67-.94-1.5-1.71-1.56h0Z"/>
    <path class="cls-6" d="M433.43,352.98c1.92-.15,2.25-1.54,4.24-2.23,1.79-.62,2.72,.01,2.72,.01,0,0,.16,.6-.44,1.37-.36,.46-.94,.79-1.05,1.33-.11,.53,.06,1.06,.06,1.06,0,0-2.54,2.54-5.13,2.54s-2.44-1.28-4.94-1.7c-1.98-.33-4.02,1-4.02,1,0,0,.42-1.33,.32-1.95-.25-1.63-1.31-2.74-1.31-2.74,0,0,1.41-.86,3.47-.58,2.06,.28,4.32,2.03,6.07,1.89h0Z"/>
    <path class="cls-6" d="M416.47,358.56c2.22,.03,1.84-1.14,3.49-1.56,1.4-.36,2.64-.32,2.64-.32,0,0,0,.89-.47,1.48-.36,.45-.56,.62-.59,1.14-.03,.53,.32,1.07,.32,1.07,0,0-.75-.3-2.09,.42-.79,.43-1.36,1.62-3.38,1.67-1.67,.05-2.04-.59-4.05-1-1.23-.25-1.89,.33-1.89,.33,0,0,.95-1.41,.81-2.19-.14-.78-1.24-1.24-1.38-1.8,.7-.28,1.35-.33,2.7-.25,2.18,.14,1.72,.98,3.9,1.01h0Z"/>
    <path class="cls-6" d="M423.6,364.32l-.69-1.44s.86,0,1.63-.48c.77-.48,1.44-1.25,2.75-1.07,1.31,.19,2.27,2.43,5.47,2.43,2.67,0,2.89-1.92,5.66-1.89,2.96,.03,3.76,1.58,3.76,1.58,0,0-.52,.99-.49,1.79,.03,.8,.78,2.17,.78,2.17,0,0-2.08-.79-3.55-.73-1.47,.05-3.47,2.27-6.38,2.06-2.97-.22-3.58-2.13-5.71-2.67-2.13-.53-2.72,.03-2.72,.03l-.52-1.77h0Z"/>
    <path class="cls-6" d="M429.95,372.89c2.03,.05,2.29,1.4,4.22,1.29,1.92-.11,2.23-1.37,4.6-1.31,2.37,.05,3.2,1.42,4.71,1.57,1.73,.16,2.64-.26,2.64-.26,0,0,0,.47-.72,1.43-.72,.96-2.13,2.19-2.13,2.19l-11.53,.21-1.79-5.12h0Z"/>
    <path class="cls-45" d="M434.43,384.11s2.34,6.22,5.88,6.85c3.54,.63,5.84,.62,8.18,.05,2.34-.57,3.58-2.79,3.35-5.01-.23-2.22-2.97-3.76-4.05-4.91-1.08-1.14-4.11-5.71-8.5-6.28-4.63-.6-7.93,3.14-7.93,3.14l3.08,6.17h0Z"/>
    <path class="cls-45" d="M395.28,375.78s-3.03-.29-4.74,1.08c-1.71,1.37-2.17,3.42-3.76,4.45-1.6,1.03-3.14,.86-4.34,2.46-1.13,1.51-.99,3.81-.21,5.14,1.06,1.79,2.19,2.06,4.52,2.24,2.22,.18,5.79,.22,5.79,.22l2.74-15.59h0Z"/>
    <path class="cls-15" d="M424.96,372.06l-5.68,21.53,3.8,.12s2.97-.26,4.83-.46c1.86-.21,4.79-.68,4.79-.68l3.46-6.62-11.2-13.88h0Z"/>
    <path class="cls-13" d="M388.77,390.95l-.83-.72s.46-2.06,2.48-7.38c2.02-5.32,4.54-11.56,5.47-13.52,.93-1.96,1.75-4.64,2.17-4.95,.41-.31,5.36-.62,10.84-.77,5.48-.15,15.33,.05,15.64,.21,.31,.15-.31,4.54-.31,4.54l-9.19,25.4-17.44-1.65-8.83-1.14h0Z"/>
    <path class="cls-36" d="M411.6,394.92s2.26,.05,4.53-.1c2.27-.15,7.76-.59,8.13-.9,.36-.31,.18-6.22,.39-10.71,.21-4.49,.29-8.41,.54-9.06,.19-.49,6.94,18.82,6.94,18.82l8.1-1.44s-4.76-9.2-7.03-13.18c-2.27-3.98-7.72-14.62-8.63-14.6-.64,.01-5.52,10.96-6.96,14.37-1.73,4.09-3.45,8.75-4.64,12.08-.94,2.64-1.38,4.73-1.38,4.73h0Z"/>
    <path class="cls-17" d="M413.85,392.36c-.05,1.13-.2,2.42-.73,2.74-.52,.32-10.88-1.17-15.15-1.69-4.51-.56-10.07-1.8-10.31-2.08-.24-.28-.03-1.93,.38-2.34,.4-.4,.49,.95,.49,.95,0,0,6.53,1.29,9.45,1.59,4.6,.49,12.1,1.49,12.95,1.25,.84-.24,1.3-2.69,2.05-2.59,.75,.11,.91,1.23,.87,2.16Z"/>
    <path class="cls-17" d="M425.3,373.9c-.12-.26-.32,.46,.05,2.17,.32,1.45,5.76,17.13,5.85,17.26,.08,.12,2.46-.12,2.46-.12l4.88-1.81-5.8-5.2-4.15-6.45s-3.18-5.64-3.27-5.84h0Z"/>
    <path class="cls-2" d="M438.6,392.89s-4.27-3.51-5.27-4.64c-2.99-3.4-4.64-7.01-5-7.66-.36-.64-2.91-5.9-3.04-6.26-.12-.36,0-.81,.36-.24,.36,.56,2.04,3.79,3.44,5.98,.34,.53,3.21,4.73,3.95,5.52,3.12,3.37,6.41,5.52,6.41,5.52l-.85,1.78h0Z"/>
    <path class="cls-29" d="M431.51,397.44l-.56,1.49s-.08,.77,.04,.93c.12,.16,7.34-.04,7.34-.04,0,0-.08,1.13,.24,1.41,.32,.28,4.23,.24,4.39,.04,.16-.2,.2-1.61,.2-1.61,0,0,2.34,.12,2.58,.04,.24-.08,0-2.06,0-2.06l-2.62-1.98-11.6,1.78h0Z"/>
    <path class="cls-43" d="M431.19,394.34l-.24,4.6,7.3-.16s.04-1.61,.16-1.69c.29-.19,4.6-.49,4.8-.24,.2,.24,.12,1.85,.12,1.85l2.5-.12s0-3.14-.12-3.22c-.12-.08-10.64-.89-11.65-.93-1.01-.04-2.91-.36-2.87-.08h0Z"/>
    <path class="cls-37" d="M441.27,383.04s-2.12,3.49-4.88,5.85c-1.53,1.31-2.74,2.94-2.62,5.12,.09,1.68,1.69,3.04,4.07,3.14,5.36,.24,6.13-2.94,6.41-4.84,.28-1.89,.03-6.44-.04-6.57-.18-.33-1.06,1.4-1.81,2.26-.84,.97-1.89,1.78-1.89,1.78,0,0,.95-2.45,1.1-4.11,.14-1.57,.07-2.82-.33-2.62h0Z"/>
    <path class="cls-3" d="M383.86,361.17c.28,.74,1.17,1.26,2.11,.79,.93-.46,.95-1.47,.56-2.19-.39-.72-1.41-.76-1.98-.49-.56,.28-1.01,1.07-.7,1.88h0Z"/>
    <path class="cls-3" d="M444.98,349.73c-.5,.74-.52,1.68,.09,2.22s1.75,.49,2.35-.33c.56-.77,.43-1.66-.15-2.22-.57-.56-1.79-.41-2.3,.33Z"/>
    <path class="cls-3" d="M397.14,350.06s.69-2.13,1.07-2.2c.38-.07,1.22,2.2,1.22,2.2,0,0,1.79,.09,1.93,.48,.14,.38-1.34,1.53-1.34,1.53,0,0,.57,1.98,.33,2.18-.24,.19-2.18-1.03-2.18-1.03,0,0-1.6,1.53-2.05,1.29-.45-.24,.33-2.39,.33-2.39,0,0-1.55-1-1.58-1.55-.02-.55,2.25-.5,2.25-.5h0Z"/>
  </g>
  <path class="cls-41" d="M718.27,273.44c0,36.09-65.35,123.77-65.35,123.77,0,0-65.35-87.68-65.35-123.77s29.26-65.35,65.35-65.35,65.35,29.26,65.35,65.35Z"/>
  <g>
    <path class="cls-24" d="M652.92,214.71h0c31.43,0,56.91,25.48,56.91,56.91h0c0,31.43-25.48,56.91-56.91,56.91h0c-31.43,0-56.91-25.48-56.91-56.91h0c0-31.43,25.48-56.91,56.91-56.91Z"/>
    <g class="cls-19">
      <g>
        <path class="cls-35" d="M655.29,259.55c-1.54-1.44-1.63-3.86-.18-5.4,1.44-1.54,3.86-1.63,5.4-.18,1.54,1.44,9.08,10.82,7.64,12.36-1.44,1.54-11.31-5.33-12.86-6.77Z"/>
        <path class="cls-7" d="M647.17,281.06c0,.76-.62,1.38-1.38,1.38s-1.38-.62-1.38-1.38,.62-1.38,1.38-1.38,1.38,.62,1.38,1.38Z"/>
        <path class="cls-9" d="M652.69,303.15c-6.52,0-12.62-.7-17.2-1.97-4.96-1.38-6.27-2.92-6.27-3.55s1.31-2.17,6.27-3.55c4.58-1.27,10.68-1.97,17.2-1.97s12.62,.7,17.2,1.97c4.96,1.38,6.27,2.93,6.27,3.55s-1.31,2.17-6.27,3.55c-4.58,1.27-10.68,1.97-17.2,1.97Z"/>
        <path class="cls-38" d="M652.69,290.72c-13.72,0-24.84,3.09-24.84,6.9s11.12,6.9,24.84,6.9,24.84-3.09,24.84-6.9-11.12-6.9-24.84-6.9Zm20.46,7.79c-1.21,.6-2.89,1.17-4.86,1.64-4.3,1.03-9.85,1.6-15.6,1.6s-11.3-.57-15.6-1.6c-1.97-.47-3.65-1.04-4.86-1.64-.76-.37-1.18-.69-1.42-.89,.23-.21,.66-.52,1.42-.89,1.21-.6,2.89-1.17,4.86-1.64,4.3-1.04,9.84-1.61,15.6-1.61s11.3,.57,15.6,1.61c1.97,.47,3.65,1.04,4.86,1.64,.76,.37,1.18,.69,1.42,.89-.23,.21-.66,.52-1.42,.89Z"/>
        <path class="cls-8" d="M655.46,238.28c-.76,0-1.38,.62-1.38,1.38v25.25h2.76v-25.25c0-.76-.62-1.38-1.38-1.38Z"/>
        <path class="cls-34" d="M656.84,270.51h-2.76v11.93h0s0,.06,0,.09c0,1.52-1.24,2.76-2.76,2.76s-2.76-1.24-2.76-2.76c0-.03,0-.06,0-.09h0v-2.76c0-.76-.62-1.38-1.38-1.38s-1.38,.62-1.38,1.38v2.76h0s0,.06,0,.09c0,3.05,2.47,5.52,5.52,5.52s5.52-2.47,5.52-5.52c0-.03,0-.06,0-.09h0v-11.93Z"/>
        <path class="cls-7" d="M655.46,263.12c-2.29,0-4.14,1.85-4.14,4.14s1.85,4.14,4.14,4.14,4.14-1.85,4.14-4.14-1.86-4.14-4.14-4.14Zm0,5.52c-.76,0-1.38-.62-1.38-1.38s.62-1.38,1.38-1.38,1.38,.62,1.38,1.38-.62,1.38-1.38,1.38Z"/>
      </g>
    </g>
  </g>
  <path class="cls-41" d="M1007.85,125.55c0,36.09-65.35,123.77-65.35,123.77,0,0-65.35-87.68-65.35-123.77s29.26-65.35,65.35-65.35,65.35,29.26,65.35,65.35Z"/>
  <g>
    <path class="cls-17" d="M940.72,65.65h0c32.27,0,58.43,26.16,58.43,58.43h0c0,32.27-26.16,58.43-58.43,58.43h0c-32.27,0-58.43-26.16-58.43-58.43h0c0-32.27,26.16-58.43,58.43-58.43Z"/>
    <path class="cls-44" d="M907.32,156.85l9.45-3.3-7.14-3.29-2.31,6.59Z"/>
    <path class="cls-27" d="M934.66,129.83l-13.29-13.4-2.2,6.15,15.49,7.25Z"/>
    <path class="cls-44" d="M919.18,122.58l-2.42,6.92,29.44,13.73,1.43-.44-12.96-12.96-15.49-7.25Z"/>
    <path class="cls-27" d="M914.45,136.42l21.97,10.21,9.78-3.4-29.44-13.73-2.31,6.92Z"/>
    <path class="cls-44" d="M912.04,143.34l14.5,6.81,9.89-3.51-21.97-10.21-2.42,6.92Z"/>
    <path class="cls-27" d="M912.04,143.34l-2.42,6.92,7.14,3.29,9.78-3.4-14.5-6.81Z"/>
    <path class="cls-39" d="M940.16,124.12c7.36,7.25,11.2,15.38,8.57,18.01-2.75,2.64-10.87-1.1-18.34-8.46-7.36-7.25-11.2-15.38-8.57-18.01,2.75-2.64,10.87,1.21,18.34,8.46Z"/>
    <path class="cls-28" d="M930.93,105.77c-1.76-2.53,.11-3.62,2.53-3.19-2.31-2.75-.88-4.72,2.75-3.95,1.1,.22-.44,2.09-1.43,2.09,2.97,2.2,1.32,4.61-1.87,4.06,2.86,3.84-1.98,2.86-4.17,3.08-.55,2.86,2.75,6.15,1.65,6.15-2.42,0-6.37-9.12,.55-8.24Z"/>
    <path class="cls-42" d="M954,111.04c-1.65,.77-6.26-6.48-.55-6.59-3.3-2.97-2.86-4.39,1.54-4.5-5.05-5.05,2.97-6.81,3.73-4.17,.22,.77-2.42-.66-3.3,.77-.99,1.65,6.15,5.93-1.21,5.6,2.75,2.75,2.86,4.06-1.43,4.5,.55,.88,2.31,3.95,1.21,4.39Z"/>
    <path class="cls-23" d="M955.86,128.18l1.65-1.43s1.54,2.31,2.64,3.19c.88-3.95,.66-6.26,5.16-3.62-2.53-6.81,1.65-4.28,5.71-2.42-.22-1.76,0-1.54,1.76-2.09,1.54,5.82-2.64,4.06-5.93,2.2,1.98,5.27-.11,4.94-4.28,3.19-.11,2.2-.77,4.72-2.09,4.94-1.54,.44-4.61-3.95-4.61-3.95Z"/>
    <path class="cls-10" d="M943.56,111.92c-1.98,2.64-5.16,4.06-7.47,6.37-2.42,2.42-3.84,9.01-3.84,9.01,0,0,.88-6.92,3.19-9.56,2.09-2.42,5.16-4.17,6.81-6.92,2.86-5.05,.22-11.64-3.51-15.49,.77-.66,1.87-1.54,2.42-2.2,3.62,4.5,6.7,13.18,2.42,18.78Z"/>
    <path class="cls-42" d="M946.97,117.53c-2.86,2.09-4.94,5.16-6.92,8.02-1.76,2.53-7.36,5.71-7.36,5.71,0,0,5.27-3.62,6.92-6.26,1.98-3.3,3.95-6.7,7.03-9.12,6.15-4.72,15.05-4.28,21.97-1.76-.44,.99-1.21,3.08-1.21,3.08,0,0-14.61-3.95-20.43,.33Z"/>
    <path class="cls-28" d="M959.16,116.98c-1.87,2.42-2.75,5.38-4.17,8.13-1.32,2.53-3.08,4.94-5.6,6.26-2.86,1.43-9.12,.99-9.12,.99,0,0,6.26-.11,8.9-1.87,2.64-1.76,4.06-4.83,5.05-7.69,1.98-5.49,4.39-11.42,10.11-13.84,.33,.99,1.1,3.08,1.1,3.08,0,0-3.19,.88-6.26,4.94Z"/>
    <path class="cls-28" d="M908.64,105.58l3.11-3.11,3.11,3.11-3.11,3.11-3.11-3.11Z"/>
    <path class="cls-42" d="M913,115.33l3.11-3.11,3.11,3.11-3.11,3.11-3.11-3.11Z"/>
    <path class="cls-23" d="M920.89,100.63l3.11-3.11,3.11,3.11-3.11,3.11-3.11-3.11Z"/>
    <path class="cls-10" d="M954.77,137.84l3.11-3.11,3.11,3.11-3.11,3.11-3.11-3.11Z"/>
    <path class="cls-23" d="M947.85,148.49l3.11-3.11,3.11,3.11-3.11,3.11-3.11-3.11Z"/>
    <path class="cls-42" d="M961.44,150.92l3.11-3.11,3.11,3.11-3.11,3.11-3.11-3.11Z"/>
    <path class="cls-28" d="M964.52,136.78l3.11-3.11,3.11,3.11-3.11,3.11-3.11-3.11Z"/>
    <path class="cls-28" d="M959.33,103.93l3.11-3.11,3.11,3.11-3.11,3.11-3.11-3.11Z"/>
    <path class="cls-23" d="M926.04,122.57l3.11-3.11,3.11,3.11-3.11,3.11-3.11-3.11Z"/>
  </g>
</svg>