<?xml version="1.0" encoding="UTF-8"?>
<svg id="Warstwa_1" data-name="Warstwa 1" xmlns="http://www.w3.org/2000/svg" viewBox="0 0 234.82 240.37">
  <defs>
    <style>
      .cls-1 {
        fill: #c62828;
      }

      .cls-2, .cls-3 {
        fill: #37474f;
      }

      .cls-4 {
        fill: #546e7a;
      }

      .cls-5 {
        fill: #455a64;
      }

      .cls-6 {
        fill: #a06841;
      }

      .cls-3 {
        opacity: .59;
      }

      .cls-3, .cls-7, .cls-8 {
        isolation: isolate;
      }

      .cls-7 {
        opacity: .45;
      }

      .cls-7, .cls-8 {
        fill: #fff59d;
      }

      .cls-9 {
        fill: #f44336;
      }

      .cls-10 {
        fill: #e2a610;
      }

      .cls-8 {
        opacity: .65;
      }

      .cls-11 {
        fill: #ff7555;
      }

      .cls-12 {
        fill: none;
        stroke: #784d30;
        stroke-miterlimit: 62.5;
        stroke-width: 61.35px;
      }

      .cls-13 {
        fill: #ffca28;
      }
    </style>
  </defs>
  <path class="cls-1" d="M52.09,44.96l.34-36.9,16.94-5.19,19.52,33.5-36.8,8.59Z"/>
  <path class="cls-3" d="M62.88,33.01s-5.21-23.81,.68-26.17c10.47-4.18,18.64,23.33,18.64,23.33l-19.32,2.84h0Z"/>
  <path class="cls-9" d="M30.5,57.7c-.18-3.26-4.58-29.29,2.1-43.81C35.67,7.26,48.24,2.86,59.49,.36c2.78-.62,9.97-1.02,14.44,4.1,4.02,4.62,9.97,14.76,15.84,30.03l-4.22,9.09s-5.83-15.42-11.65-28.15c-4.83-10.55-10.95-7.05-11.57-4.58-1.12,4.52,4.6,29.05,4.6,29.05-8.33,3.54-36.42,17.8-36.42,17.8h0Z"/>
  <path class="cls-5" d="M74.09,26.78l3.5-17.02,13.79-7.99,16.6,.04,13.81,11.19,3.82,21.82-16.68-5.63-2.26-15.64-15.3-.38-2.04,12.43-15.26,1.16Z"/>
  <g>
    <path class="cls-11" d="M59.47,.38c-11.25,2.48-22.56,6.07-26.89,13.53-2.48,4.28-3.92,15.52-3.64,25.95,2.18-3.44,11.09-9.39,17.74-12.27,6.63-2.88,7.39-5.75,7.49-7.01,.5-5.73,.02-10.45,1.7-14.5C57.99,.96,61.02,.32,62.78,.06c-1.34,0-2.52,.14-3.3,.32Z"/>
    <path class="cls-11" d="M68.54,.94c-1.08-.38-2.16-.62-3.2-.74,1.08,.28,2.14,.64,3.2,.74Z"/>
  </g>
  <path class="cls-12" d="M169.45,210.72c29.79-7.91,38.68-41.56,47.13-44.39"/>
  <path class="cls-1" d="M198.46,141.97c2.18,14.2,6.47,15.26,13.93,14.88,11.31-.56,12.55-3.16,15.08-22.54,3.12-24.07-5.91-57.6-13.69-80.59-4.12-12.17-3.7-20.52-12.89-29.81-5.05-5.11-24.69-12.61-30.39-2.84-3.92,6.73-1.96,13.55,1.78,18.96,10.87,15.74,20.88,67.61,26.19,101.95h0Z"/>
  <path class="cls-3" d="M175.6,45.88c2.08,4.26,4.22,9.79,5.97,16.02,17.74-.54,36.96,7.97,36.96,7.45,0-.44-1.5-11.99-6.39-23.45-2.12-4.97-8.59-18.58-16.6-17.26-10.07,1.68-19.94,17.24-19.94,17.24h0Z"/>
  <path class="cls-9" d="M161.36,70.47c5.23-11.17,24.55-39.6,35.66-40.52,5.51-.46,11.69,10.93,13.95,17.16,6.35,17.48,13.25,44.91,15.28,73.54,1.26,17.86-2,32.07-8.73,37.98,25.79-4.83,15.72-61.11,13.53-72.76-7.35-39.02-16.98-53.74-24.37-61.61-5.65-6.01-30.23-18.72-43.21-18.12-9.99,.46-31.85,19.14-37.82,29.49-1.76,3.04,35.7,34.84,35.7,34.84h0Z"/>
  <path class="cls-11" d="M126.75,239.73c33.84-2.68,55.24-21.7,57.48-39.74,7.73-62.35-7.55-152.5-68.39-169.98-6.79-1.94-18.72-4.5-29.09-4.5-12.07,0-30.69,2.54-44.07,11.71C18.29,53.95,11.78,77.78,10.18,89.59c-5.91,43.31,74,153.52,116.56,150.14Z"/>
  <path class="cls-1" d="M184.23,199.99c4.02-32.43,1.82-72.38-9.79-105.73-6.05-7.81-12.77-11.47-18.34-9.67-6.69,2.16-12.55,11.07-10.43,20.04,0,0,16.2,64.99,5.19,106.09-7.29,27.21-26.49,29.07-26.49,29.07,.8,0,1.6,0,2.38-.06,33.86-2.68,55.24-21.7,57.48-39.74h0Z"/>
  <path class="cls-9" d="M26.56,233.03c10.21,3.22,37.06,7.25,84.61,7.25,42.71,0,42.41-15.2,45.93-33.04,7.25-36.8-2.68-156.69-77.06-159.27C14.99,45.68,8.48,83.89,3.57,125.37c-5.13,43.39-3.92,59.62-1.44,77.3,3.22,23.1,17.4,28.13,24.43,30.35h0Z"/>
  <path class="cls-2" d="M169.57,111.76c-1.72-9.05-4.16-19-8.19-28.71l-4.85,.22c3.62,8.23,6.63,17.9,8.79,29.29,6.91,36.5,7.71,60.97,7.35,74.24-.22,7.97,4.16,8.01,4.38-.5,.34-13.63-.58-38.02-7.49-74.54h0Z"/>
  <path class="cls-10" d="M174.54,182.63c-2.43,.84-3.89,3.31-3.46,5.85l2.6,15.1c.34,2.4,2.56,4.07,4.96,3.73,.48-.07,.95-.22,1.39-.44l7.25-3.7c2.36-1.2,3.12-4.22,1.62-6.41l-8.35-12.13c-1.33-1.93-3.79-2.74-6.01-1.98h0Z"/>
  <path class="cls-13" d="M177.94,203.89c-.36-.66-2.28-10.95-2.86-15.64-.64-5.27,1.62-5.57,1.96-5.85-2.86-.45-5.55,1.5-6,4.37-.09,.56-.08,1.14,.01,1.7l2.6,15.1c.3,2.06,1.92,3.5,3.78,3.74,.84,.1,1.72-.02,2.56-.46l1.68-.86c-.08-.02-2.56,.06-3.74-2.1Z"/>
  <path class="cls-4" d="M229.44,176.46l-18.7,1.66c-1.72,.16-3.26-1.12-3.4-2.86l-1.42-15.88c-.16-1.72,1.12-3.26,2.86-3.4l18.7-1.66c1.72-.16,3.26,1.12,3.4,2.86l1.42,15.88c.14,1.72-1.14,3.24-2.86,3.4Z"/>
  <path class="cls-2" d="M224.35,177.07l-17.7,1.58c-1.72,.16-3.26-1.12-3.4-2.86l-1.44-16.2c-.16-1.72,1.12-3.26,2.86-3.4l17.7-1.58c1.72-.16,3.26,1.12,3.4,2.86l1.44,16.2c.14,1.72-1.14,3.24-2.86,3.4h0Z"/>
  <path class="cls-6" d="M212.08,195.34l-5.43-28.59c-.1-.48,.24-.94,.74-.98l14.28-1.44c.4-.04,.78,.22,.88,.62l7.05,26.39c.46,1.72-.6,3.5-2.34,3.9l-11.37,2.6c-1.74,.38-3.48-.74-3.8-2.5Z"/>
  <path class="cls-8" d="M88.33,109.75l-30.89-.92c-2.7,0-4.91-2.2-4.91-4.91l.42-15.9c0-2.66,2.12-4.85,4.79-4.91l30.55,.82c2.71-.07,4.97,2.06,5.04,4.77,0,.01,0,.02,0,.03l-.06,16c.02,2.74-2.18,5.01-4.95,5.01h0Z"/>
  <path class="cls-11" d="M163.49,6.12c-7.57,.24-22.2,11.25-31.19,21,4.64-.38,15.64,4.77,24.77,11.81,1.82,1.4,6.31,1.14,9.23-2,2.66-2.86,5.17-5.07,7.85-7.91,15.74-16.68,28.11-8.41,28.11-8.41-13.01-8.47-28.87-14.8-38.76-14.5Z"/>
  <path class="cls-4" d="M162,84.57c-9.87-24.67-29.79-48.39-73.32-52.32-30.23-2.72-50.59,11.31-58.88,16.4-1.84,1.12-3.9,2.52-5.31,4.44-1.78,2.44-2.02,4.44-2.02,4.44,0,0,26.23-24.49,65.81-20.98,22.62,2,52.34,9.55,68.69,47.79,1.38-.34,3.24-.14,5.03,.22h0Z"/>
  <path class="cls-11" d="M128.13,220.75s-31.99,2.22-67.97,.26c-18.96-1.04-32.86-3.76-35.68-7.43-3.48-4.52-7.61-8.91-7.61-32.17,0-15.68,5.79-28.31,17-28.59,8.57-.22,98.53-1.2,91.74-1.2s-12.91,14.88-12.29,30.91c1.52,39.3,14.82,38.22,14.82,38.22Z"/>
  <path class="cls-11" d="M96.73,181.41c.7-.2,7.07,.36,12.15-3.18,1.92-1.34,3.44-2.46,4.67-3.74,1.18-12.01,5.91-21.8,11.19-22.76,.18-.04,.36-.08,.52-.1-7.85,.16-72.02-2.2-92.06-1.9-9.29,.14-16.46,11.07-15.82,23.93,1.34,2.38,3.5,4.95,6.81,5.45,6.49,.98,71.84,2.54,72.54,2.32h0Z"/>
  <path class="cls-7" d="M96.73,181.41c.7-.2,7.07,.36,12.15-3.18,1.92-1.34,3.44-2.46,4.67-3.74,1.18-12.01,5.91-21.8,11.19-22.76,.18-.04,.36-.08,.52-.1-7.85,.16-72.02-2.2-92.06-1.9-9.29,.14-16.46,11.07-15.82,23.93,1.34,2.38,3.5,4.95,6.81,5.45,6.49,.98,71.84,2.54,72.54,2.32h0Z"/>
  <path class="cls-1" d="M138.28,171.6c-.68-10.45-3.14-15.42-5.39-17.78-2.06-2.2-5.29-2.38-9.87-2.16-2.84,.14-8.03,2.86-10.21,18.94v-.02c-1.72,3.9-6.23,7.79-13.69,7.79l-71.58-2.32c-7.17-.46-9.79-7.31-10.13-7.93,0,0-1.04,4.83-.06,7.89,1.24,3.84,5.81,6.13,10.19,6.13l71.58,2.32c5.71,0,10.05-2.26,12.85-4.36-.12,2.48-.18,5.19-.18,8.11,0,30.75,8.87,33.08,14.54,32.82,5.67-.28,11.21-2.44,12.11-7.47,1.28-7.03,1.14-21.8-.16-41.94Z"/>
</svg>