<?xml version="1.0" encoding="utf-8"?>
<!-- Uploaded to: SVG Repo, www.svgrepo.com, Generator: SVG Repo Mixer Tools -->
<svg width="800px" height="800px" viewBox="0 0 1024 1024" class="icon"  version="1.1" xmlns="http://www.w3.org/2000/svg"><path d="M640 213.333333L384 128 128 213.333333v682.666667l256-85.333333 256 85.333333 256-85.333333V128z" fill="#FFECB3" /><path d="M384 128v682.666667l256 85.333333V213.333333z" fill="#FFE082" /><path d="M640 320c-82.496 0-149.333333 70.250667-149.333333 156.821333S640 768 640 768s149.333333-204.629333 149.333333-291.178667S722.496 320 640 320z" fill="#F44336" /><path d="M640 469.333333m-64 0a64 64 0 1 0 128 0 64 64 0 1 0-128 0Z" fill="#FFEBEE" /></svg>