<svg width="459" height="132" viewBox="0 0 459 132" fill="none" xmlns="http://www.w3.org/2000/svg">
<g clip-path="url(#clip0_102_5)">
<g filter="url(#filter0_i_102_5)">
<path d="M7.125 75.0625L6.9375 76.25C6.6875 91.0833 6.625 102.188 6.75 109.562C7.125 105.688 7.3125 99.0625 7.3125 89.6875V81.5625L7.125 75.0625ZM55.125 16.4375L53.9375 16.3125C39.1458 17.1458 28.0833 17.8958 20.75 18.5625C24.625 18.6458 31.25 18.3542 40.625 17.6875L48.6875 17.0625L55.125 16.4375ZM58.75 11.8125L67.25 18.6875L64.4375 82.1875L18.1875 83V125.188H4.125V16.125L58.75 11.8125ZM18.1875 29.1875V63.75L51.375 64.1875L54.5 26.8125L18.1875 29.1875ZM92.125 15.3125L91.8125 102.5L125.062 97.6875L124.25 123.25L73.5 124.062L76.6875 15.1875L92.125 15.3125ZM83.3125 74.5C82.7708 89.5417 82.6875 100.729 83.0625 108.062C83.5208 90.8542 83.6042 79.6667 83.3125 74.5ZM79.25 100.875C79.5417 112.625 79.8542 119.021 80.1875 120.062C80.7292 90.6042 80.7917 71.1875 80.375 61.8125C79.75 78.8125 79.375 91.8333 79.25 100.875ZM88 56.625C88.3333 38.625 88.2292 27.3125 87.6875 22.6875C87.6042 22.0208 87.4375 20.5208 87.1875 18.1875C87.2708 36.8958 87.5417 49.7083 88 56.625ZM178.188 21.5625L178.75 31.6875L153.688 33.875L154.562 60.3125L168.562 59.875L169.5 76.3125H152.625L155.75 100.812L197.312 99.625L197 111.062L132.625 111.188L133.875 21.5625H178.188ZM143 60.1875C142.917 44.9792 142.396 33.6458 141.438 26.1875C141.771 43.6458 142.292 54.9792 143 60.1875ZM147.125 54.375C146.042 42.5 145.25 36.0417 144.75 35C145.667 64.7917 146.604 83.5417 147.562 91.25C147.646 75.8333 147.5 63.5417 147.125 54.375ZM140.5 99.25C140.958 94.5833 140.521 84.0417 139.188 67.625C138.938 74.625 139.208 86.7083 140 103.875C140.25 101.5 140.417 99.9583 140.5 99.25ZM148.375 105.5H148.188L148.375 108.5H148.562L148.375 105.5ZM159.812 23.4375C162.188 23.8125 167.438 23.8125 175.562 23.4375C173.188 23.1458 167.125 23.0208 157.375 23.0625C158.625 23.2708 159.438 23.3958 159.812 23.4375ZM267.875 33.0625L229.875 34.1875L228.875 100.188L277.062 104.875L278.375 115.062L204.25 115.812L212.438 18.875L264.562 18.25L267.875 33.0625ZM225.188 97.1875C225.562 89.6875 225.625 84.1042 225.375 80.4375C225.042 89.0208 224.979 94.6042 225.188 97.1875ZM222.188 97.625H222V100.625H222.188V97.625ZM235.688 25.9375C238.062 26.2708 243.938 26.2708 253.312 25.9375C249.729 25.6458 243.062 25.5208 233.312 25.5625C234.521 25.7708 235.312 25.8958 235.688 25.9375ZM316 84.0625L306.75 124.688L284.625 120.125L310.75 21.6875L338.812 18.5L363.25 119.188L349.875 122.5L341 83.0625L316 84.0625ZM336.938 65L328.688 28.4375L320.25 65.4375L336.938 65ZM289.938 118.812C292.396 112.396 293.771 107.938 294.062 105.438C292.104 110.104 290.729 114.562 289.938 118.812ZM294.625 102.875L295.25 101.812C300.083 87.8125 303.521 77.25 305.562 70.125C303.854 73.6667 301.562 79.8958 298.688 88.8125L296.25 96.5625L294.625 102.875ZM303.375 70.1875C303.833 68.7292 304.188 67.6042 304.438 66.8125C306.146 61.4375 307.708 55.8125 309.125 49.9375L308.812 49.8125L304.375 63.8125C301.5 72.4792 297.979 83.3958 293.812 96.5625C294.146 96.6458 295.5 93.2917 297.875 86.5C300.25 79.6667 302.083 74.2292 303.375 70.1875ZM354.125 97.9375C354.208 99.6042 354.938 102.625 356.312 107C355.979 104.125 355.25 101.104 354.125 97.9375ZM353 91.9375L351.688 86.625C350.146 80.5833 348.875 76.3542 347.875 73.9375C348.917 78.7292 350.792 85.8958 353.5 95.4375L353.875 96.1875L353 91.9375ZM321.938 40.1875C322.188 39.1875 322.375 38.4167 322.5 37.875C323.417 34.2083 324.229 30.3958 324.938 26.4375L324.75 26.375L322.375 35.875C320.75 41.75 318.812 49.1458 316.562 58.0625C316.771 58.1458 317.542 55.875 318.875 51.25C320.208 46.625 321.229 42.9375 321.938 40.1875ZM387.5 16.4375L384.812 58.625L423.125 13.125L434.125 21.375L397.438 66.75L446.438 123.875L432.875 126L388.5 72.1875L388.812 123.25L369.5 123.562L369.625 16.9375L387.5 16.4375ZM379.75 62.25C380.542 47.2083 380.667 36.0208 380.125 28.6875C379.458 45.8958 379.333 57.0833 379.75 62.25ZM422.062 105.562C417.896 100.729 415.521 98.1667 414.938 97.875C424.646 110.625 431.208 118.896 434.625 122.688C429.25 115.146 425.062 109.438 422.062 105.562ZM375.688 85.75C376.396 81.125 376.542 69.8125 376.125 51.8125C375.458 58.6875 375.062 71.5 374.938 90.25C375.312 87.9167 375.562 86.4167 375.688 85.75Z" fill="#646FD4"/>
</g>
<g filter="url(#filter1_i_102_5)">
<path d="M12.125 68.0625L11.9375 69.25C11.6875 84.0833 11.625 95.1875 11.75 102.562C12.125 98.6875 12.3125 92.0625 12.3125 82.6875V74.5625L12.125 68.0625ZM60.125 9.4375L58.9375 9.3125C44.1458 10.1458 33.0833 10.8958 25.75 11.5625C29.625 11.6458 36.25 11.3542 45.625 10.6875L53.6875 10.0625L60.125 9.4375ZM63.75 4.8125L72.25 11.6875L69.4375 75.1875L23.1875 76V118.188H9.125V9.125L63.75 4.8125ZM23.1875 22.1875V56.75L56.375 57.1875L59.5 19.8125L23.1875 22.1875ZM97.125 8.3125L96.8125 95.5L130.062 90.6875L129.25 116.25L78.5 117.062L81.6875 8.1875L97.125 8.3125ZM88.3125 67.5C87.7708 82.5417 87.6875 93.7292 88.0625 101.062C88.5208 83.8542 88.6042 72.6667 88.3125 67.5ZM84.25 93.875C84.5417 105.625 84.8542 112.021 85.1875 113.062C85.7292 83.6042 85.7917 64.1875 85.375 54.8125C84.75 71.8125 84.375 84.8333 84.25 93.875ZM93 49.625C93.3333 31.625 93.2292 20.3125 92.6875 15.6875C92.6042 15.0208 92.4375 13.5208 92.1875 11.1875C92.2708 29.8958 92.5417 42.7083 93 49.625ZM183.188 14.5625L183.75 24.6875L158.688 26.875L159.562 53.3125L173.562 52.875L174.5 69.3125H157.625L160.75 93.8125L202.312 92.625L202 104.062L137.625 104.188L138.875 14.5625H183.188ZM148 53.1875C147.917 37.9792 147.396 26.6458 146.438 19.1875C146.771 36.6458 147.292 47.9792 148 53.1875ZM152.125 47.375C151.042 35.5 150.25 29.0417 149.75 28C150.667 57.7917 151.604 76.5417 152.562 84.25C152.646 68.8333 152.5 56.5417 152.125 47.375ZM145.5 92.25C145.958 87.5833 145.521 77.0417 144.188 60.625C143.938 67.625 144.208 79.7083 145 96.875C145.25 94.5 145.417 92.9583 145.5 92.25ZM153.375 98.5H153.188L153.375 101.5H153.562L153.375 98.5ZM164.812 16.4375C167.188 16.8125 172.438 16.8125 180.562 16.4375C178.188 16.1458 172.125 16.0208 162.375 16.0625C163.625 16.2708 164.438 16.3958 164.812 16.4375ZM272.875 26.0625L234.875 27.1875L233.875 93.1875L282.062 97.875L283.375 108.062L209.25 108.812L217.438 11.875L269.562 11.25L272.875 26.0625ZM230.188 90.1875C230.562 82.6875 230.625 77.1042 230.375 73.4375C230.042 82.0208 229.979 87.6042 230.188 90.1875ZM227.188 90.625H227V93.625H227.188V90.625ZM240.688 18.9375C243.062 19.2708 248.938 19.2708 258.312 18.9375C254.729 18.6458 248.062 18.5208 238.312 18.5625C239.521 18.7708 240.312 18.8958 240.688 18.9375ZM321 77.0625L311.75 117.688L289.625 113.125L315.75 14.6875L343.812 11.5L368.25 112.188L354.875 115.5L346 76.0625L321 77.0625ZM341.938 58L333.688 21.4375L325.25 58.4375L341.938 58ZM294.938 111.812C297.396 105.396 298.771 100.938 299.062 98.4375C297.104 103.104 295.729 107.562 294.938 111.812ZM299.625 95.875L300.25 94.8125C305.083 80.8125 308.521 70.25 310.562 63.125C308.854 66.6667 306.562 72.8958 303.688 81.8125L301.25 89.5625L299.625 95.875ZM308.375 63.1875C308.833 61.7292 309.188 60.6042 309.438 59.8125C311.146 54.4375 312.708 48.8125 314.125 42.9375L313.812 42.8125L309.375 56.8125C306.5 65.4792 302.979 76.3958 298.812 89.5625C299.146 89.6458 300.5 86.2917 302.875 79.5C305.25 72.6667 307.083 67.2292 308.375 63.1875ZM359.125 90.9375C359.208 92.6042 359.938 95.625 361.312 100C360.979 97.125 360.25 94.1042 359.125 90.9375ZM358 84.9375L356.688 79.625C355.146 73.5833 353.875 69.3542 352.875 66.9375C353.917 71.7292 355.792 78.8958 358.5 88.4375L358.875 89.1875L358 84.9375ZM326.938 33.1875C327.188 32.1875 327.375 31.4167 327.5 30.875C328.417 27.2083 329.229 23.3958 329.938 19.4375L329.75 19.375L327.375 28.875C325.75 34.75 323.812 42.1458 321.562 51.0625C321.771 51.1458 322.542 48.875 323.875 44.25C325.208 39.625 326.229 35.9375 326.938 33.1875ZM392.5 9.4375L389.812 51.625L428.125 6.125L439.125 14.375L402.438 59.75L451.438 116.875L437.875 119L393.5 65.1875L393.812 116.25L374.5 116.562L374.625 9.9375L392.5 9.4375ZM384.75 55.25C385.542 40.2083 385.667 29.0208 385.125 21.6875C384.458 38.8958 384.333 50.0833 384.75 55.25ZM427.062 98.5625C422.896 93.7292 420.521 91.1667 419.938 90.875C429.646 103.625 436.208 111.896 439.625 115.688C434.25 108.146 430.062 102.438 427.062 98.5625ZM380.688 78.75C381.396 74.125 381.542 62.8125 381.125 44.8125C380.458 51.6875 380.062 64.5 379.938 83.25C380.312 80.9167 380.562 79.4167 380.688 78.75Z" fill="#D9DDFA"/>
</g>
</g>
<defs>
<filter id="filter0_i_102_5" x="4.125" y="11.8125" width="442.312" height="119.188" filterUnits="userSpaceOnUse" color-interpolation-filters="sRGB">
<feFlood flood-opacity="0" result="BackgroundImageFix"/>
<feBlend mode="normal" in="SourceGraphic" in2="BackgroundImageFix" result="shape"/>
<feColorMatrix in="SourceAlpha" type="matrix" values="0 0 0 0 0 0 0 0 0 0 0 0 0 0 0 0 0 0 127 0" result="hardAlpha"/>
<feOffset dy="5"/>
<feGaussianBlur stdDeviation="7.5"/>
<feComposite in2="hardAlpha" operator="arithmetic" k2="-1" k3="1"/>
<feColorMatrix type="matrix" values="0 0 0 0 0 0 0 0 0 0 0 0 0 0 0 0 0 0 0.9 0"/>
<feBlend mode="normal" in2="shape" result="effect1_innerShadow_102_5"/>
</filter>
<filter id="filter1_i_102_5" x="9.125" y="4.8125" width="442.312" height="118.188" filterUnits="userSpaceOnUse" color-interpolation-filters="sRGB">
<feFlood flood-opacity="0" result="BackgroundImageFix"/>
<feBlend mode="normal" in="SourceGraphic" in2="BackgroundImageFix" result="shape"/>
<feColorMatrix in="SourceAlpha" type="matrix" values="0 0 0 0 0 0 0 0 0 0 0 0 0 0 0 0 0 0 127 0" result="hardAlpha"/>
<feOffset dy="4"/>
<feGaussianBlur stdDeviation="2"/>
<feComposite in2="hardAlpha" operator="arithmetic" k2="-1" k3="1"/>
<feColorMatrix type="matrix" values="0 0 0 0 0 0 0 0 0 0 0 0 0 0 0 0 0 0 0.3 0"/>
<feBlend mode="normal" in2="shape" result="effect1_innerShadow_102_5"/>
</filter>
<clipPath id="clip0_102_5">
<rect width="459" height="132" fill="white"/>
</clipPath>
</defs>
</svg>
